<svg width="800" height="600" xmlns="http://www.w3.org/2000/svg">
 <!-- Created with Method Draw - http://github.com/duopixel/Method-Draw/ -->

 <g>
  <title>background</title>
  <rect fill="#fff" id="canvas_background" height="602" width="802" y="-1" x="-1"/>
  <g display="none" overflow="visible" y="0" x="0" height="100%" width="100%" id="canvasGrid">
   <rect fill="url(#gridpattern)" stroke-width="0" y="0" x="0" height="100%" width="100%"/>
  </g>
 </g>
 <g>
  <title>Layer 1</title>
  <g stroke="null" id="svg_13">
   <g stroke="null" transform="matrix(1.1213357673101054,0,0,1.111572191971888,-2631.51445178015,-1894.939963785977) " id="svg_5">
    <g stroke="null" id="svg_6">
     <g stroke="null" id="svg_7">
      <path stroke="null" id="svg_8" fill="#567AEC" class="active-path" d="m2759.08945,1882.82096l-51.167,0l0,22.659l51.167,0c6.247,0 11.329,-5.082 11.329,-11.33c0,-6.247 -5.082,-11.329 -11.329,-11.329z"/>
      <path stroke="null" id="svg_9" fill="#567AEC" class="active-path" d="m2719.69245,1710.07996c-86.982,0 -157.747,70.765 -157.747,157.748c0,86.982 70.765,157.747 157.747,157.747s157.748,-70.765 157.748,-157.747c-0.001,-86.983 -70.766,-157.748 -157.748,-157.748zm80.757,184.07c0,21.292 -16.174,38.872 -36.879,41.113l0,23.142l-30.031,0l0,-22.895l-25.618,0l0,22.895l-30.031,0l0,-22.895l-23.897,0l0,-30.03l23.897,0l0,-75.348l-23.897,0l0,-30.031l23.897,0l0,-22.895l30.031,0l0,22.895l25.618,0l0,-22.895l30.031,0l0,23.142c20.705,2.242 36.879,19.822 36.879,41.113c0,10.002 -3.57,19.185 -9.501,26.344c5.931,7.16 9.501,16.343 9.501,26.345z"/>
      <path stroke="null" id="svg_10" fill="#567AEC" class="active-path" d="m2759.08945,1830.13196l-51.167,0l0,22.659l51.167,0c6.247,0 11.329,-5.082 11.329,-11.329c0,-6.248 -5.082,-11.33 -11.329,-11.33z"/>
     </g>
     <g stroke="null" id="svg_11">
      <path stroke="null" id="svg_12" fill="#567AEC" class="active-path" d="m2808.37945,2130.65496l-107.706,21.937c-5.504,7.504 -12.886,13.532 -21.439,17.276c-12.958,5.673 -27.25,5.844 -40.166,0.511l-93.447,-38.025l12.056,-29.628l90.331,38.019c10.901,4.416 23.312,-0.894 27.645,-11.828c4.271,-10.779 -0.917,-22.988 -11.641,-27.395l-118.35,-50.027c-22.029,-9.096 -46.341,-8.22 -67.77,2.225c-2.296,1.12 -112.453,44.344 -112.453,44.344l0,121.334l0,0.059l136.638,-55.679l149.611,58.302l225.431,-43.827c0.002,-0.004 0.004,-0.006 0.007,-0.009c-5.843,-32.125 -36.622,-53.432 -68.747,-47.589z"/>
     </g>
    </g>
   </g>
  </g>
  <rect id="svg_14" height="236" width="196" y="66.5" x="331" stroke-width="1.5" stroke="#567aec" fill="#567aec"/>
  <text stroke="#567aec" transform="matrix(12.629073143005371,0,0,11.153402298701165,-3858.4813566207895,-1057.2193975907737) " xml:space="preserve" text-anchor="start" font-family="Helvetica, Arial, sans-serif" font-size="24" id="svg_15" y="120.5" x="333" stroke-width="0" fill="#ffffff">₹</text>
 </g>
</svg>