<svg width="800" height="600" xmlns="http://www.w3.org/2000/svg">
 <!-- Created with Method Draw - http://github.com/duopixel/Method-Draw/ -->

 <g>
  <title>background</title>
  <rect fill="#fff" id="canvas_background" height="602" width="802" y="-1" x="-1"/>
  <g display="none" overflow="visible" y="0" x="0" height="100%" width="100%" id="canvasGrid">
   <rect fill="url(#gridpattern)" stroke-width="0" y="0" x="0" height="100%" width="100%"/>
  </g>
 </g>
 <g>
  <title>Layer 1</title>
  <g stroke="null" id="svg_7">
   <g stroke="null" transform="matrix(1.355574393688474,0,0,1.3484011901418458,-3245.0567019152772,-2349.56332465579) " id="svg_5">
    <path stroke="null" id="svg_6" fill="#4B7CF3" class="active-path" d="m2437.41382,1854.38159a8,8 0 1 1 8,-8a8.009,8.009 0 0 1 -8,8zm184,-8a64,64 0 1 1 -64,-64a64.072,64.072 0 0 1 64,64zm-72,-16a8,8 0 0 1 16,0a8,8 0 0 0 16,0a24.039,24.039 0 0 0 -16,-22.624l0,-1.376a8,8 0 0 0 -16,0l0,1.376a24,24 0 0 0 8,46.624a8,8 0 1 1 -8,8a8,8 0 0 0 -16,0a24.039,24.039 0 0 0 16,22.624l0,1.376a8,8 0 0 0 16,0l0,-1.376a24,24 0 0 0 -8,-46.624a8.009,8.009 0 0 1 -8,-8zm261.06,276.863l-14.384,7.009l34.22,71.1a8,8 0 0 0 14.366,-7.043l-34.202,-71.066zm-77.046,-220.84l-0.014,0l0,128l0.014,0a64,64 0 0 0 0,-128zm-56.014,-48.023a8,8 0 0 0 -1.368,15.874q4.272,-2.56 8.784,-4.745l-0.041,-0.018a8.009,8.009 0 0 0 -7.375,-11.111zm6.621,212.49a111.09,111.09 0 0 0 33.379,10.357l0,94.584l-16,15.449l-18.443,-17.808a8,8 0 0 0 -11.114,0l-18.443,17.808l-18.443,-17.808a8,8 0 0 0 -11.114,0l-18.443,17.808l-18.443,-17.808a8,8 0 0 0 -11.114,0l-18.443,17.808l-18.443,-17.808a8,8 0 0 0 -11.114,0l-18.443,17.808l-18.443,-17.808a8,8 0 0 0 -11.114,0l-18.443,17.808l-18.443,-17.808a8,8 0 0 0 -11.114,0l-18.443,17.808l-16,-15.449l0,-413.431l320,0l0,97.153a111.142,111.142 0 0 0 -16.226,3.6a24,24 0 1 0 -39.512,21.347a111.859,111.859 0 0 0 2.569,173.9l-18.831,0a8,8 0 0 0 0,16l32,0a7.991,7.991 0 0 0 6.621,-3.51zm-246.621,-180.49a24,24 0 1 0 -24,-24a24.027,24.027 0 0 0 24,24zm168,240a8,8 0 0 0 -8,-8l-160,0a8,8 0 0 0 0,16l160,0a8,8 0 0 0 8,-8zm0,-32a8,8 0 0 0 -8,-8l-160,0a8,8 0 0 0 0,16l160,0a8,8 0 0 0 8,-8zm0,-32a8,8 0 0 0 -8,-8l-160,0a8,8 0 0 0 0,16l160,0a8,8 0 0 0 8,-8zm0,-32a8,8 0 0 0 -8,-8l-160,0a8,8 0 0 0 0,16l160,0a8,8 0 0 0 8,-8zm0,-32a8,8 0 0 0 -8,-8l-160,0a8,8 0 0 0 0,16l160,0a8,8 0 0 0 8,-8zm0,-32a8,8 0 0 0 -8,-8l-160,0a8,8 0 0 0 0,16l160,0a8,8 0 0 0 8,-8zm32,-104a80,80 0 1 0 -80,80a80.091,80.091 0 0 0 80,-80zm48,264a8,8 0 0 0 -8,-8l-32,0a8,8 0 0 0 0,16l32,0a8,8 0 0 0 8,-8zm0,-32a8,8 0 0 0 -8,-8l-32,0a8,8 0 0 0 0,16l32,0a8,8 0 0 0 8,-8zm111.182,0.028l-7.148,3.484l-0.009,0l-0.007,0l-7.219,3.518l6.939,14.417l14.383,-7.009l-6.939,-14.41zm-127.168,-128.005a64.113,64.113 0 0 0 47.986,61.971l0,-123.941a64.112,64.112 0 0 0 -47.986,61.97zm64.023,95.977a96,96 0 1 1 96,-96a96.109,96.109 0 0 1 -96,96zm79.977,-95.977a80,80 0 1 0 -80,80a80.091,80.091 0 0 0 80,-80z"/>
   </g>
  </g>
  <rect stroke="null" id="svg_8" height="138" width="78" y="71.5" x="184" stroke-width="1.5" fill="#4B7CF3"/>
  <text transform="matrix(5.856550568843772,0,0,4.676805729834825,-1074.866277550694,-428.97296347308213) " xml:space="preserve" text-anchor="start" font-family="Helvetica, Arial, sans-serif" font-size="24" id="svg_9" y="130.71382" x="215.24423" stroke-width="0" fill="#fff">₹</text>
 </g>
</svg>