<svg width="800" height="600" xmlns="http://www.w3.org/2000/svg">
 <!-- Created with Method Draw - http://github.com/duopixel/Method-Draw/ -->

 <g>
  <title>background</title>
  <rect fill="#fff" id="canvas_background" height="602" width="802" y="-1" x="-1"/>
  <g display="none" overflow="visible" y="0" x="0" height="100%" width="100%" id="canvasGrid">
   <rect fill="url(#gridpattern)" stroke-width="0" y="0" x="0" height="100%" width="100%"/>
  </g>
 </g>
 <g>
  <title>Layer 1</title>
  <g id="svg_21">
   <g transform="matrix(9.765625,0,0,9.765625,0,0) " id="svg_5">
    <g id="svg_6">
     <circle id="svg_7" fill="#4B7CF3" class="active-path" r="1" cy="34.72" cx="34.96"/>
     <path id="svg_8" fill="#4B7CF3" class="active-path" d="m28.771,51.72c-3.891,0 -7.577,1.446 -10.43,4l25.24,0c-2.853,-2.554 -6.539,-4 -10.43,-4l-4.38,0z"/>
     <path id="svg_9" fill="#4B7CF3" class="active-path" d="m12.96,3.72l36,0c0.552,0 1,-0.448 1,-1s-0.448,-1 -1,-1l-36,0c-0.552,0 -1,0.448 -1,1s0.448,1 1,1z"/>
     <path id="svg_10" fill="#4B7CF3" class="active-path" d="m45.96,46.72c0,-3.619 -1.276,-7.026 -3.612,-9.742c-2.215,4.015 -6.488,6.742 -11.388,6.742s-9.173,-2.727 -11.388,-6.742c-2.336,2.716 -3.612,6.123 -3.612,9.742l0,8.534c3.331,-3.517 7.928,-5.534 12.811,-5.534l4.379,0c4.883,0 9.48,2.017 12.811,5.534l0,-8.534l-0.001,0zm-18,0l-2,0l0,-2l2,0l0,2zm4,1l-2,0l0,-2l2,0l0,2zm4,-1l-2,0l0,-2l2,0l0,2z"/>
     <path id="svg_11" fill="#4B7CF3" class="active-path" d="m63.24,17.72l2.43,-7.292l-2.174,-0.543l-2.412,4.823l-2.598,-3.895l-4.163,0.694l2.33,6.213l6.587,0z"/>
     <path id="svg_12" fill="#4B7CF3" class="active-path" d="m52.96,49.72l-1,0l0,2l-2,0l0,-2l-2,0l0,4l17,0c0.552,0 1,-0.448 1,-1l0,-2c0,-0.552 -0.448,-1 -1,-1l-1,0l0,2l-2,0l0,-2l-2,0l0,2l-2,0l0,-2l-2,0l0,2l-2,0l0,-2l-1,0z"/>
     <path id="svg_13" fill="#4B7CF3" class="active-path" d="m59.605,41.72l0.711,0c5.318,0 9.644,-4.326 9.644,-9.645c0,-1.989 -0.603,-3.901 -1.743,-5.531l-4.778,-6.824l-6.959,0l-4.777,6.824c-1.14,1.63 -1.743,3.542 -1.743,5.531c0,5.319 4.326,9.645 9.645,9.645zm-3.645,-9l2,0l0,1l3,0c0.552,0 1,-0.448 1,-1s-0.448,-1 -1,-1l-2,0c-1.654,0 -3,-1.346 -3,-3s1.346,-3 3,-3l0,-2l2,0l0,2l3,0l0,3l-2,0l0,-1l-3,0c-0.552,0 -1,0.448 -1,1s0.448,1 1,1l2,0c1.654,0 3,1.346 3,3s-1.346,3 -3,3l0,2l-2,0l0,-2l-3,0l0,-3z"/>
     <path id="svg_14" fill="#4B7CF3" class="active-path" d="m45.96,11.72l-30,0l0,3c0,3.619 1.276,7.026 3.612,9.742c2.215,-4.015 6.488,-6.742 11.388,-6.742s9.173,2.727 11.388,6.742c2.336,-2.716 3.612,-6.123 3.612,-9.742l0,-3z"/>
     <path id="svg_15" fill="#4B7CF3" class="active-path" d="m15.96,5.72l30,0l0,4l-30,0l0,-4z"/>
     <path id="svg_16" fill="#4B7CF3" class="active-path" d="m30.96,41.72c6.065,0 11,-4.935 11,-11s-4.935,-11 -11,-11s-11,4.935 -11,11s4.935,11 11,11zm4,-4c-1.654,0 -3,-1.346 -3,-3s1.346,-3 3,-3s3,1.346 3,3s-1.346,3 -3,3zm1.293,-13.707l1.414,1.414l-12,12l-1.414,-1.414l12,-12zm-9.293,-0.293c1.654,0 3,1.346 3,3s-1.346,3 -3,3s-3,-1.346 -3,-3s1.346,-3 3,-3z"/>
     <path id="svg_17" fill="#4B7CF3" class="active-path" d="m48.96,57.72l-36,0c-0.552,0 -1,0.448 -1,1s0.448,1 1,1l34,0l2,0c0.552,0 1,-0.448 1,-1s-0.448,-1 -1,-1z"/>
     <path id="svg_18" fill="#4B7CF3" class="active-path" d="m68.96,43.72l-1,0l0,2l-2,0l0,-2l-2,0l0,2l-2,0l0,-2l-1.645,0l-0.355,0l0,2l-2,0l0,-2l-2,0l0,2l-2,0l0,-2l-1,0c-0.552,0 -1,0.448 -1,1l0,2c0,0.552 0.448,1 1,1l12,0l4,0c0.552,0 1,-0.448 1,-1l0,-2c0,-0.552 -0.448,-1 -1,-1z"/>
     <path id="svg_19" fill="#4B7CF3" class="active-path" d="m68.96,55.72l-1,0l0,2l-2,0l0,-2l-1,0l-1,0l0,2l-2,0l0,-2l-2,0l0,2l-2,0l0,-2l-2,0l0,2l-2,0l0,-2l-5,0c1.654,0 3,1.346 3,3c0,0.352 -0.072,0.686 -0.184,1l17.184,0c0.552,0 1,-0.448 1,-1l0,-2c0,-0.552 -0.448,-1 -1,-1z"/>
     <circle id="svg_20" fill="#4B7CF3" class="active-path" r="1" cy="26.72" cx="26.96"/>
    </g>
   </g>
  </g>
  <rect id="svg_22" height="158" width="89" y="219.5" x="544" stroke-width="1.5" fill="#4B7CF3"/>
  <text transform="matrix(7.433575211276207,0,0,5.742723372993737,-3637.778590394796,-1355.3327363666128) " xml:space="preserve" text-anchor="start" font-family="Helvetica, Arial, sans-serif" font-size="24" id="svg_23" y="297.5" x="562" stroke-width="0" fill="#fff">₹</text>
 </g>
</svg>