<svg width="300" height="300" xmlns="http://www.w3.org/2000/svg" xmlns:xlink="http://www.w3.org/1999/xlink">
 <!-- Created with Method Draw - http://github.com/duopixel/Method-Draw/ -->
 <defs>
  <symbol height="512px" width="512px" viewBox="0 0 512 512" y="0px" x="0px" id="svg_2" xmlns:xlink="http://www.w3.org/1999/xlink">
   <g>
    <g>
     <g>
      <path fill="#4B7CF3" class="active-path" d="m256,0c-140.61,0 -256,115.39 -256,256s115.39,256 256,256s256,-115.39 256,-256s-115.39,-256 -256,-256z"/>
     </g>
    </g>
   </g>
  </symbol>
 </defs>
 <g>
  <title>background</title>
  <rect fill="none" id="canvas_background" height="302" width="302" y="-1" x="-1"/>
  <g display="none" overflow="visible" y="0" x="0" height="100%" width="100%" id="canvasGrid">
   <rect fill="url(#gridpattern)" stroke-width="0" y="0" x="0" height="100%" width="100%"/>
  </g>
 </g>
 <g>
  <title>Layer 1</title>
  <use x="5.990589" y="3.424742" transform="matrix(0.5743347574025393,0,0,0.5782023537904024,-0.4702969789505005,0) " xlink:href="#svg_2" id="svg_3"/>
  <g stroke="null" id="svg_94">
   <g stroke="null" transform="matrix(0.03814697265625,0,0,0.03814697265625,0,0) " id="svg_89">
    <circle stroke="null" id="svg_90" fill="#FFFFFF" class="active-path" r="8" cy="168" cx="296"/>
    <circle stroke="null" id="svg_91" fill="#FFFFFF" class="active-path" r="8" cy="168" cx="376"/>
    <path stroke="null" id="svg_92" fill="#FFFFFF" class="active-path" d="m488,432l-8,0l0,-120a56.1,56.1 0 0 0 -44.809,-54.875a74.911,74.911 0 0 0 28.809,-59.332l0,-57.931c0,-68.298 -53.832,-123.862 -120,-123.862l-16,0c-66.168,0 -120,55.564 -120,123.862l0,57.931a77.143,77.143 0 0 0 0.678,10.207l-136.678,0a40.045,40.045 0 0 0 -40,40l0,160a39.788,39.788 0 0 0 8.022,24l-16.022,0a8,8 0 0 0 -8,8l0,32a8,8 0 0 0 8,8l464,0a8,8 0 0 0 8,-8l0,-32a8,8 0 0 0 -8,-8zm-24,-120l0,120l-24.022,0a39.788,39.788 0 0 0 8.022,-24a8,8 0 0 0 -8,-8l-104,0l0,-94l27.2,20.4a8,8 0 0 0 11.31,-1.75l37.607,-52.65l11.883,0a40.045,40.045 0 0 1 40,40zm-181.952,-104a55.319,55.319 0 0 1 -10.048,-32l0,-40l128,0l0,40a56.063,56.063 0 0 1 -56,56l-11.35,0a40.051,40.051 0 0 0 -36.65,-24l-13.952,0zm124.358,64l-26.2,36.687l-33.006,-14.287l16.8,-22.4l42.406,0zm-12,-10.667l-16,21.333l0,-34.666l8,0a72.383,72.383 0 0 0 8,-0.455l0,13.788zm-47.206,179.122l95.434,0a24.042,24.042 0 0 1 -34.634,-8.455l-80.022,0a39.835,39.835 0 0 0 7.222,-16l12,24.455zm-51.994,-386.662l0,86.069c-71.206,-59.475 -24.552,-107.862 32.794,-107.862l16,0c57.346,0 104,48.387 104,107.862l0,57.931c0,32.1 -25.121,58.207 -56,58.207l-24,0l0,-12.128a72.115,72.115 0 0 0 48,-67.872l0,-48a8,8 0 0 0 -8,-8l-16,0l0,-24a8,8 0 0 0 -16,0l0,24l-16,0l0,-24a8,8 0 0 0 -16,0l0,24l-16,0l0,-24a8,8 0 0 0 -16,0l0,24l-16,0l0,-24a8,8 0 0 0 -16,0l0,24l-16,0a8,8 0 0 0 -8,8l0,48a72.25,72.25 0 0 0 7.513,32l-38.654,0a60.927,60.927 0 0 1 -0.859,-10.207l71.206,-144zm-64.8,428.414l0,-234.207a24.027,24.027 0 0 1 24,-24l41.594,0a24.027,24.027 0 0 1 24,24l0,160a24.027,24.027 0 0 1 -24,24l-224,0a24.027,24.027 0 0 1 -24,-24l182.406,74.207zm608,-154.207l-806.406,0l0,120l448,0l358.406,-120z"/>
    <path stroke="null" id="svg_93" fill="#FFFFFF" class="active-path" d="m184,264a64,64 0 1 0 64,64a64.072,64.072 0 0 0 -64,-64zm-48,64a48.07,48.07 0 0 1 40,-47.321l0,8.7a24,24 0 0 0 8,46.621a8,8 0 1 1 -8,8a8,8 0 0 0 -16,0a24.039,24.039 0 0 0 16,22.624l0,8.7a48.07,48.07 0 0 1 -40,-47.324zm56,47.321l0,-8.7a24,24 0 0 0 -8,-46.621a8,8 0 1 1 8,-8a8,8 0 0 0 16,0a24.039,24.039 0 0 0 -16,-22.624l0,-8.7a47.991,47.991 0 0 1 0,94.642l0,0.003z"/>
   </g>
  </g>
  <g stroke="null" id="svg_121">
   <g stroke="null" transform="matrix(2.683318452909589,0,0,2.58646352449432,-6.966738814517157,-3.9369967672264465) " id="svg_108">
    <g stroke="null" id="svg_106">
     <circle stroke="null" id="svg_109" r="14" fill="#5EB1E9" cy="43.538621" cx="42.500199"/>
     <g stroke="null" id="svg_110" fill="#b3404a">
      <path stroke="null" id="svg_111" fill="#FFFFFF" class="hovered-path active-path" d="m85.500199,77.128621l0,-15.43a15,15 0 0 0 -21.16,-21.16l-7.14,0a15,15 0 1 0 -25.7,13.16l0,23.43l-3.71,3.7a1,1 0 0 0 -0.29,0.71l0,4a5,5 0 0 0 5,5l52,0a5,5 0 0 0 5,-5l0,-4a1,1 0 0 0 -0.29,-0.71l-3.71,-3.7zm-50,-20.33l0,16.74a1,1 0 0 0 1,1l44,0a1,1 0 0 0 1,-1l0,-8.74a15.5,15.5 0 0 0 2,-1.26l0,13l-50,0l0,-21a15.5,15.5 0 0 0 2,1.26zm41,-2.26a2,2 0 0 1 -4,0l4,0zm2,-6a4,4 0 0 1 -8,0l0,-2a4,4 0 0 1 8,0l0,2zm-8,6.1a4,4 0 0 0 8,0a5,5 0 0 1 4,4.9l0,2.23a12.94,12.94 0 0 1 -16,0l0,-2.23a5,5 0 0 1 4,-4.9zm4,11.9a14.81,14.81 0 0 0 5,-0.88l0,6.88l-42,0l0,-14.88a14.81,14.81 0 0 0 5,0.88a15,15 0 0 0 14.7,-12l3.18,0a14.81,14.81 0 0 0 -0.88,5a15,15 0 0 0 15,15zm9.59,12l2,2l-55.18,0l2,-2l51.18,0zm-9.59,-40a13,13 0 0 1 10,21.29l0,-0.29a7,7 0 0 0 -5.66,-6.87a6,6 0 0 0 1.66,-4.13l0,-2a6,6 0 0 0 -12,0l0,2a6,6 0 0 0 1.66,4.13a7,7 0 0 0 -5.66,6.87l0,0.29a13,13 0 0 1 10,-21.29zm-12,4a15.5,15.5 0 0 0 -1.29,2l-3.71,0c0,-0.33 0.05,-0.66 0.05,-1s0,-0.67 -0.05,-1l5,0zm-20,-12a13,13 0 1 1 -13,13a13,13 0 0 1 13,-13zm42,58l-52,0a3,3 0 0 1 -3,-3l0,-3l58,0l0,3a3,3 0 0 1 -3,3z"/>
      <path stroke="null" id="svg_112" fill="#FFFFFF" class="hovered-path active-path" d="m65.580199,33.188621a15.57,15.57 0 0 0 -2,-0.82l-0.63,1.9a14.3,14.3 0 0 1 1.73,0.71l0.9,-1.79z"/>
      <path stroke="null" id="svg_113" fill="#FFFFFF" class="hovered-path active-path" d="m61.500199,31.828621a15.15,15.15 0 0 0 -2.09,-0.29l-0.11,2a14.76,14.76 0 0 1 1.86,0.23l0.34,-1.94z"/>
      <path stroke="null" id="svg_114" fill="#FFFFFF" class="hovered-path active-path" d="m57.420199,33.538621l-0.15,-2a15,15 0 0 0 -2.12,0.3l0.42,2a14.22,14.22 0 0 1 1.85,-0.3z"/>
      <path stroke="null" id="svg_115" fill="#FFFFFF" class="hovered-path active-path" d="m69.120199,35.538621a15.35,15.35 0 0 0 -1.69,-1.32l-1.12,1.7a13.92,13.92 0 0 1 1.48,1.15l1.33,-1.53z"/>
      <path stroke="null" id="svg_116" fill="#FFFFFF" class="hovered-path active-path" d="m51.420199,61.888621a15.57,15.57 0 0 0 2,0.82l0.63,-1.9a14.3,14.3 0 0 1 -1.73,-0.71l-0.9,1.79z"/>
      <path stroke="null" id="svg_117" fill="#FFFFFF" class="hovered-path active-path" d="m59.580199,61.538621l0.15,2a15,15 0 0 0 2.12,-0.3l-0.42,-2a14.22,14.22 0 0 1 -1.85,0.3z"/>
      <path stroke="null" id="svg_118" fill="#FFFFFF" class="hovered-path active-path" d="m55.500199,63.248621a15.15,15.15 0 0 0 2.12,0.26l0.11,-2a14.76,14.76 0 0 1 -1.86,-0.23l-0.37,1.97z"/>
      <path stroke="null" id="svg_119" fill="#FFFFFF" class="hovered-path active-path" d="m47.880199,59.538621a15.35,15.35 0 0 0 1.69,1.32l1.12,-1.66a13.92,13.92 0 0 1 -1.48,-1.15l-1.33,1.49z"/>
      <path stroke="null" id="svg_120" fill="#FFFFFF" class="hovered-path active-path" d="m42.500199,48.538621a2,2 0 0 1 -2,-2l-2,0a4,4 0 0 0 3,3.86l0,2.14l2,0l0,-2.14a4,4 0 0 0 -1,-7.86a2,2 0 1 1 2,-2l2,0a4,4 0 0 0 -3,-3.86l0,-2.14l-2,0l0,2.14a4,4 0 0 0 1,7.86a2,2 0 0 1 0,4z"/>
     </g>
    </g>
   </g>
  </g>
 </g>
</svg>