<?xml version="1.0" encoding="utf-8"?>
<!-- Generator: Adobe Illustrator 24.3.0, SVG Export Plug-In . SVG Version: 6.00 Build 0)  -->
<svg version="1.1" id="Layer_1" xmlns="http://www.w3.org/2000/svg" xmlns:xlink="http://www.w3.org/1999/xlink" x="0px" y="0px"
	 viewBox="0 0 64 64" style="enable-background:new 0 0 64 64;" xml:space="preserve">
<style type="text/css">
	.st0{fill:#567AEC;}
</style>
<g>
	<g>
		<path class="st0" d="M53.9,30c-0.1,0.4-0.5,0.6-0.9,0.6H3.3c-0.4,0-0.8-0.3-0.9-0.6c-0.1-0.4,0-0.8,0.3-1.1l22.6-18.6v12.9
			c0,2.7,2.2,5,5,5h22.4l1,0.8C53.9,29.2,54.1,29.6,53.9,30z"/>
	</g>
	<g>
		<g>
			<path class="st0" d="M9.3,53.2v-19c-0.6-0.4-1.2-1-1.6-1.6h9.4c-0.4,0.7-0.9,1.2-1.5,1.6v19c0.9,0.6,1.6,1.5,2,2.5H7.3
				C7.7,54.7,8.4,53.9,9.3,53.2z"/>
			<path class="st0" d="M25,53.2v-19c-0.6-0.4-1.2-1-1.6-1.6h9.4c-0.4,0.7-0.9,1.2-1.6,1.6v19c0.9,0.6,1.6,1.5,2,2.5H23
				C23.4,54.7,24.1,53.9,25,53.2z"/>
			<path class="st0" d="M40.7,53.2v-19c-0.6-0.4-1.2-1-1.6-1.6h9.4c-0.4,0.7-0.9,1.2-1.6,1.6v19c0.9,0.6,1.6,1.5,2,2.5H38.7
				C39.1,54.7,39.8,53.9,40.7,53.2z"/>
		</g>
	</g>
	<g>
		<path class="st0" d="M2.9,58.6c0-0.5,0.4-1,1-1h48.6c0.5,0,1,0.4,1,1c0,0.5-0.4,1-1,1H3.9C3.4,59.6,2.9,59.2,2.9,58.6z"/>
		<path class="st0" d="M56.3,63c0,0.5-0.4,1-1,1H1c-0.5,0-1-0.4-1-1c0-0.5,0.4-1,1-1h54.4C55.9,62.1,56.3,62.5,56.3,63z"/>
	</g>
	<g>
		<circle class="st0" cx="54.8" cy="16.6" r="1.5"/>
		<path class="st0" d="M64,7.1V3c0-1.7-1.4-3-3-3H30.3c-1.7,0-3,1.4-3,3v4.1L64,7.1L64,7.1z"/>
		<path class="st0" d="M51.3,16.6c0-0.5,0.1-1,0.3-1.4c-0.2-0.1-0.3-0.1-0.5-0.1c-0.8,0-1.5,0.7-1.5,1.5c0,1,1,1.8,2,1.4
			C51.4,17.6,51.3,17.1,51.3,16.6z"/>
		<path class="st0" d="M27.2,9.1v14c0,1.7,1.4,3,3,3H61c1.7,0,3-1.4,3-3v-14H27.2z M33.4,13.2h4.9c0.5,0,1,0.4,1,1s-0.4,1-1,1h-4.9
			c-0.5,0-1-0.4-1-1C32.4,13.6,32.9,13.2,33.4,13.2z M43.5,20.1H33.4c-0.5,0-1-0.4-1-1s0.4-1,1-1h10.1c0.5,0,1,0.4,1,1
			S44,20.1,43.5,20.1z M54.8,20.1c-0.7,0-1.3-0.2-1.8-0.5c-2.3,1.4-5.2-0.3-5.2-2.9c0-2.6,2.9-4.4,5.2-2.9c0.5-0.3,1.1-0.5,1.8-0.5
			c1.9,0,3.4,1.5,3.4,3.4S56.7,20.1,54.8,20.1z"/>
	</g>
</g>
</svg>
