<?xml version="1.0" encoding="utf-8"?>
<!-- Generator: Adobe Illustrator 24.3.0, SVG Export Plug-In . SVG Version: 6.00 Build 0)  -->
<svg version="1.1" xmlns="http://www.w3.org/2000/svg" xmlns:xlink="http://www.w3.org/1999/xlink" x="0px" y="0px"
	 viewBox="0 0 95 81.6" style="enable-background:new 0 0 95 81.6;" xml:space="preserve">
<style type="text/css">
	.st0{fill:#567AEC;}
	.st1{fill:#FFFFFF;}
</style>
<g id="Layer_2">
</g>
<g id="Layer_1">
	<path class="st0" d="M94.6,48.6L81.4,22.4c-0.5-0.9-1.3-1.5-2.3-1.6l-14.2,0.1c-1.2-6.4-5.9-11.5-12-13.5V5.5c0-3-2.5-5.5-5.5-5.5
		s-5.5,2.5-5.5,5.5v1.9c-6.1,2-10.7,7.1-12,13.5l-14.1-0.1c-1,0.1-1.9,0.7-2.3,1.6L0.4,48.6c-0.4,0.8-0.5,1.7-0.3,2.5
		c2.3,8.1,8.5,12,16,12c7.4,0,13.7-3.9,16-12c0.2-0.8,0.1-1.7-0.3-2.5L21.5,28.2h8.6c1.4,6.1,5.9,11,11.8,12.9v18.8
		c0,6.6-4.9,12-11.4,12.7l-10.2,1.1c-1.1,0.1-2,1.1-2,2.2v3.5c0,1.2,1,2.2,2.2,2.2h53.7c1.2,0,2.2-1,2.2-2.2v-3.5
		c0-1.1-0.8-2.1-2-2.2l-10.2-1.1c-6.5-0.7-11.4-6.2-11.4-12.7V41.2c5.9-1.9,10.4-6.8,11.8-12.9h8.6l-10,20.3
		c-0.4,0.8-0.5,1.7-0.3,2.5c2.3,8.1,8.5,12,16,12c7.4,0,13.7-3.9,16-12C95.1,50.2,95,49.3,94.6,48.6z M24.6,47.5h-17l8.5-16.9
		L24.6,47.5z M56,19.6c0,0.2,0,0.3-0.2,0.4c-0.1,0.1-0.2,0.2-0.4,0.2h-3c-0.3,1.7-1.1,3.2-2.3,4.2c-1.3,1.1-2.9,1.8-5,2
		c2,2.2,4.8,5.4,8.3,9.7c0.2,0.2,0.2,0.4,0.1,0.6c-0.1,0.2-0.3,0.3-0.5,0.3h-3.5c-0.2,0-0.3-0.1-0.5-0.2c-3.7-4.4-6.7-7.9-9-10.3
		c-0.1-0.1-0.2-0.2-0.2-0.4v-2.3c0-0.2,0.1-0.3,0.2-0.4c0.1-0.1,0.2-0.2,0.4-0.2h2c1.6,0,2.9-0.3,3.8-0.8c1-0.5,1.6-1.3,1.9-2.3
		h-7.7c-0.2,0-0.3-0.1-0.4-0.2c-0.1-0.1-0.2-0.2-0.2-0.4v-1.8c0-0.2,0.1-0.3,0.2-0.4s0.2-0.2,0.4-0.2h7.5c-0.7-1.4-2.3-2-4.9-2h-2.6
		c-0.2,0-0.3-0.1-0.4-0.2c-0.1-0.1-0.2-0.2-0.2-0.4v-2.4c0-0.2,0.1-0.3,0.2-0.4c0.1-0.1,0.2-0.2,0.4-0.2h15.1c0.2,0,0.3,0,0.4,0.2
		c0.1,0.1,0.2,0.2,0.2,0.4V14c0,0.2-0.1,0.3-0.2,0.4c-0.1,0.1-0.2,0.2-0.4,0.2h-4.2c0.6,0.7,1,1.6,1.2,2.6h3.1
		c0.2,0,0.3,0.1,0.4,0.2c0.1,0.1,0.2,0.2,0.2,0.4V19.6z M70.4,47.5l8.5-16.9l8.5,16.9H70.4z"/>
	<path class="st1" d="M56,17.8v1.8c0,0.2,0,0.3-0.2,0.4c-0.1,0.1-0.2,0.2-0.4,0.2h-3c-0.3,1.7-1.1,3.2-2.3,4.2c-1.3,1.1-2.9,1.8-5,2
		c2,2.2,4.8,5.4,8.3,9.7c0.2,0.2,0.2,0.4,0.1,0.6c-0.1,0.2-0.3,0.3-0.5,0.3h-3.5c-0.2,0-0.3-0.1-0.5-0.2c-3.7-4.4-6.7-7.9-9-10.3
		c-0.1-0.1-0.2-0.2-0.2-0.4v-2.3c0-0.2,0.1-0.3,0.2-0.4c0.1-0.1,0.2-0.2,0.4-0.2h2c1.6,0,2.9-0.3,3.8-0.8c1-0.5,1.6-1.3,1.9-2.3
		h-7.7c-0.2,0-0.3-0.1-0.4-0.2c-0.1-0.1-0.2-0.2-0.2-0.4v-1.8c0-0.2,0.1-0.3,0.2-0.4s0.2-0.2,0.4-0.2h7.5c-0.7-1.4-2.3-2-4.9-2h-2.6
		c-0.2,0-0.3-0.1-0.4-0.2c-0.1-0.1-0.2-0.2-0.2-0.4v-2.4c0-0.2,0.1-0.3,0.2-0.4c0.1-0.1,0.2-0.2,0.4-0.2h15.1c0.2,0,0.3,0,0.4,0.2
		c0.1,0.1,0.2,0.2,0.2,0.4V14c0,0.2-0.1,0.3-0.2,0.4c-0.1,0.1-0.2,0.2-0.4,0.2h-4.2c0.6,0.7,1,1.6,1.2,2.6h3.1
		c0.2,0,0.3,0.1,0.4,0.2C56,17.5,56,17.6,56,17.8z"/>
</g>
</svg>
