<svg width="300" height="300" xmlns="http://www.w3.org/2000/svg" xmlns:xlink="http://www.w3.org/1999/xlink">
 <!-- Created with Method Draw - http://github.com/duopixel/Method-Draw/ -->
 <defs>
  <symbol height="512px" width="512px" viewBox="0 0 512 512" y="0px" x="0px" id="svg_2" xmlns:xlink="http://www.w3.org/1999/xlink">
   <g>
    <g>
     <g>
      <path fill="#4B7CF3" class="active-path" d="m256,0c-140.61,0 -256,115.39 -256,256s115.39,256 256,256s256,-115.39 256,-256s-115.39,-256 -256,-256z"/>
     </g>
    </g>
   </g>
  </symbol>
 </defs>
 <g>
  <title>background</title>
  <rect fill="none" id="canvas_background" height="302" width="302" y="-1" x="-1"/>
  <g display="none" overflow="visible" y="0" x="0" height="100%" width="100%" id="canvasGrid">
   <rect fill="url(#gridpattern)" stroke-width="0" y="0" x="0" height="100%" width="100%"/>
  </g>
 </g>
 <g>
  <title>Layer 1</title>
  <use x="5.990589" y="3.424742" transform="matrix(0.5743347574025393,0,0,0.5782023537904024,-0.4702969789505005,0) " xlink:href="#svg_2" id="svg_3"/>
  <g stroke="null" id="svg_51">
   <g stroke="null" transform="matrix(0.44147789148121225,0,0,0.3943481946278094,-1095.1297933577068,-956.0705878707779) " id="svg_44">
    <g stroke="null" id="svg_45">
     <g stroke="null" id="svg_46">
      <path stroke="null" id="svg_47" fill="#FFFFFF" class="active-path" d="m2942.167085,2613.457252c-1.8,2.1 -4.4,3.3 -7.2,3.3s-5.5,-1.2 -7.4,-3.3l-21.3,-23.3l-21.3,23.2c-0.2,0.2 -0.4,0.4 -0.6,0.6c-4,3.7 -10.4,3.5 -14.1,-0.6l-21.3,-23.2l-21.3,23.2c-0.2,0.2 -0.4,0.4 -0.6,0.6c-4,3.7 -10.4,3.5 -14.1,-0.6l-21.3,-23.2l-21.3,23.2c-0.2,0.2 -0.4,0.4 -0.6,0.6c-4,3.7 -10.4,3.5 -14.1,-0.6l-21.3,-23.2l-21.3,23.3c-1.9,2.1 -4.6,3.3 -7.4,3.3s-5.4,-1.2 -7.2,-3.3l-11.1,-12.3l0,407.4l11.1,-12.4c1.8,-2.1 4.4,-3.3 7.2,-3.3c2.8,0 5.5,1.2 7.4,3.3l21.3,23.3l21.4,-23.2c0.2,-0.2 0.4,-0.4 0.6,-0.6c4,-3.7 10.4,-3.5 14.1,0.6l21.3,23.2l21.3,-23.2c0.2,-0.2 0.4,-0.4 0.6,-0.6c4,-3.7 10.4,-3.5 14.1,0.6l21.3,23.2l21.3,-23.2c0.2,-0.2 0.4,-0.4 0.6,-0.6c4,-3.7 10.4,-3.5 14.1,0.6l21.3,23.2l21.3,-23.3c1.9,-2.1 4.6,-3.3 7.4,-3.3s5.4,1.2 7.2,3.3l11.1,12.3l0,-407.4l-11.2,12.4zm-131.9,57l0,-6.3c0,-5.5 4.5,-10 10,-10s10,4.5 10,10l0,6.3c13.5,4.3 22.6,16.9 22.6,31c0,5.5 -4.5,10 -10,10s-10,-4.5 -10,-10c0,-0.1 0,-0.1 0,-0.1c0,-7 -5.7,-12.7 -12.6,-12.6c-6.9,0.1 -12.5,5.6 -12.5,12.6s5.6,12.6 12.6,12.6c14.1,0 26.7,9.1 31,22.6c5.5,17.1 -3.9,35.5 -21,41l0,6.4c0,5.5 -4.5,10 -10,10s-10,-4.5 -10,-10l0,-6.4c-13.5,-4.4 -22.6,-16.9 -22.6,-31c0,-5.5 4.5,-10 10,-10s10,4.5 10,10c0,7 5.7,12.6 12.6,12.6c0.1,0 0.1,0 0.1,0.1c7,-0.1 12.6,-5.7 12.5,-12.7c-0.1,-7 -5.8,-12.6 -12.7,-12.5c-14.1,0 -26.7,-9.2 -31,-22.6c-5.5,-17.1 3.9,-35.5 21,-41zm-33.7,178.4l87.6,0c5.5,0 10,4.5 10,10s-4.5,10 -10,10l-87.6,0c-5.5,0 -10,-4.5 -10,-10s4.5,-10 10,-10zm129.3,103l-171,0c-5.5,0 -10,-4.5 -10,-10s4.5,-10 10,-10l171,0c5.5,0 10,4.5 10,10s-4.5,10 -10,10zm0,-42l-171,0c-5.5,0 -10,-4.5 -10,-10s4.5,-10 10,-10l171,0c5.5,0 10,4.5 10,10s-4.5,10 -10,10z"/>
     </g>
    </g>
    <g stroke="null" id="svg_48">
     <g stroke="null" id="svg_49">
      <path stroke="null" id="svg_50" fill="#FFFFFF" class="active-path" d="m2953.367085,3008.457252l0,0l0,0z"/>
     </g>
    </g>
   </g>
  </g>
 </g>
</svg>