<svg width="300" height="300" xmlns="http://www.w3.org/2000/svg" xmlns:xlink="http://www.w3.org/1999/xlink">
 <!-- Created with Method Draw - http://github.com/duopixel/Method-Draw/ -->
 <defs>
  <symbol height="512px" width="512px" viewBox="0 0 512 512" y="0px" x="0px" id="svg_2" xmlns:xlink="http://www.w3.org/1999/xlink">
   <g>
    <g>
     <g>
      <path fill="#4B7CF3" class="active-path" d="m256,0c-140.61,0 -256,115.39 -256,256s115.39,256 256,256s256,-115.39 256,-256s-115.39,-256 -256,-256z"/>
     </g>
    </g>
   </g>
  </symbol>
 </defs>
 <g>
  <title>background</title>
  <rect fill="none" id="canvas_background" height="302" width="302" y="-1" x="-1"/>
  <g display="none" overflow="visible" y="0" x="0" height="100%" width="100%" id="canvasGrid">
   <rect fill="url(#gridpattern)" stroke-width="0" y="0" x="0" height="100%" width="100%"/>
  </g>
 </g>
 <g>
  <title>Layer 1</title>
  <use x="5.990589" y="3.424742" transform="matrix(0.5743347574025393,0,0,0.5782023537904024,-0.4702969789505005,0) " xlink:href="#svg_2" id="svg_3"/>
  <g stroke="null" id="svg_76">
   <g stroke="null" transform="matrix(0.303771840450551,0,0,0.28424709870411385,-1062.480011005247,-979.7034072826998) " id="svg_65">
    <g stroke="null" id="svg_66">
     <path stroke="null" id="svg_67" fill="#FFFFFF" class="active-path" d="m4192.076395,3718.371092l-71.66,0c-8.284,0 -15,6.716 -15,15s6.716,15 15,15l71.66,0c13.972,0 25.34,11.368 25.34,25.341l0,71.659c0,8.284 6.716,15 15,15s15,-6.716 15,-15l0,-71.659c0,-30.515 -24.826,-55.341 -55.34,-55.341z"/>
     <path stroke="null" id="svg_68" fill="#FFFFFF" class="active-path" d="m3750.416395,3860.371092c8.284,0 15,-6.716 15,-15l0,-71.659c0,-13.973 11.368,-25.341 25.34,-25.341l71.66,0c8.284,0 15,-6.716 15,-15s-6.716,-15 -15,-15l-71.66,0c-30.514,0 -55.34,24.826 -55.34,55.341l0,71.659c0,8.284 6.716,15 15,15z"/>
     <path stroke="null" id="svg_69" fill="#FFFFFF" class="active-path" d="m3862.416395,4200.371092l-71.66,0c-13.972,0 -25.34,-11.368 -25.34,-25.341l0,-71.659c0,-8.284 -6.716,-15 -15,-15s-15,6.716 -15,15l0,71.659c0,30.515 24.826,55.341 55.34,55.341l71.66,0c8.284,0 15,-6.716 15,-15s-6.716,-15 -15,-15z"/>
     <path stroke="null" id="svg_70" fill="#FFFFFF" class="active-path" d="m4232.416395,4088.371092c-8.284,0 -15,6.716 -15,15l0,71.659c0,13.973 -11.368,25.341 -25.34,25.341l-71.66,0c-8.284,0 -15,6.716 -15,15s6.716,15 15,15l71.66,0c30.515,0 55.34,-24.826 55.34,-55.341l0,-71.659c0,-8.284 -6.716,-15 -15,-15z"/>
     <path stroke="null" id="svg_71" fill="#FFFFFF" class="active-path" d="m4077.059395,3828.371092l47.575,0c6.497,0 11.782,5.285 11.782,11.782l0,47.574c0,8.284 6.716,15 15,15s15,-6.716 15,-15l0,-47.574c0,-23.039 -18.744,-41.782 -41.782,-41.782l-47.575,0c-8.284,0 -15,6.716 -15,15s6.716,15 15,15z"/>
     <path stroke="null" id="svg_72" fill="#FFFFFF" class="active-path" d="m3816.416395,3840.153092l0,47.574c0,8.284 6.716,15 15,15s15,-6.716 15,-15l0,-47.574c0,-6.497 5.286,-11.782 11.782,-11.782l47.575,0c8.284,0 15,-6.716 15,-15s-6.716,-15 -15,-15l-47.575,0c-23.038,0 -41.782,18.743 -41.782,41.782z"/>
     <path stroke="null" id="svg_73" fill="#FFFFFF" class="active-path" d="m3905.773395,4118.371092l-47.575,0c-6.497,0 -11.782,-5.285 -11.782,-11.782l0,-47.574c0,-8.284 -6.716,-15 -15,-15s-15,6.716 -15,15l0,47.574c0,23.039 18.744,41.782 41.782,41.782l47.575,0c8.284,0 15,-6.716 15,-15s-6.716,-15 -15,-15z"/>
     <path stroke="null" id="svg_74" fill="#FFFFFF" class="active-path" d="m4166.416395,4106.589092l0,-47.574c0,-8.284 -6.716,-15 -15,-15s-15,6.716 -15,15l0,47.574c0,6.497 -5.286,11.782 -11.782,11.782l-47.575,0c-8.284,0 -15,6.716 -15,15s6.716,15 15,15l47.575,0c23.038,0 41.782,-18.743 41.782,-41.782z"/>
     <path stroke="null" id="svg_75" fill="#FFFFFF" class="active-path" d="m3736.416395,3974.371092c0,8.284 6.716,15 15,15l480,0c8.284,0 15,-6.716 15,-15s-6.716,-15 -15,-15l-480,0c-8.284,0 -15,6.716 -15,15z"/>
    </g>
   </g>
  </g>
 </g>
</svg>