<svg width="300" height="300" xmlns="http://www.w3.org/2000/svg" xmlns:xlink="http://www.w3.org/1999/xlink">
 <!-- Created with Method Draw - http://github.com/duopixel/Method-Draw/ -->
 <defs>
  <symbol height="512px" width="512px" viewBox="0 0 512 512" y="0px" x="0px" id="svg_2" xmlns:xlink="http://www.w3.org/1999/xlink">
   <g>
    <g>
     <g>
      <path fill="#4B7CF3" class="active-path" d="m256,0c-140.61,0 -256,115.39 -256,256s115.39,256 256,256s256,-115.39 256,-256s-115.39,-256 -256,-256z"/>
     </g>
    </g>
   </g>
  </symbol>
  <symbol id="svg_32" width="512px" viewBox="0 -27 512 511" height="512px">
   <g>
    <path fill="#FFFFFF" class="active-path" d="m0,458.050781l512,0l0,-341.546875l-512,0l0,341.546875zm317.003906,-288.789062c63.414063,0 115.003906,51.59375 115.003906,115.007812c0,63.414063 -51.589843,115.003907 -115.003906,115.003907c-63.414062,0 -115.003906,-51.589844 -115.003906,-115.003907c0,-63.414062 51.589844,-115.007812 115.003906,-115.007812zm-182.042968,43.652343l40.453124,0l0,30l-40.453124,0l0,-30zm-30,53.054688l70.453124,0l0,30l-70.453124,0l0,-30zm70.453124,53.054688l0,30l-100.457031,0l0,-30l100.457031,0zm0,0"/>
    <path fill="#FFFFFF" class="active-path" d="m317.003906,369.273438c46.871094,0 85.003906,-38.132813 85.003906,-85.003907c0,-46.871093 -38.132812,-85.003906 -85.003906,-85.003906s-85.003906,38.132813 -85.003906,85.003906c0,46.871094 38.132812,85.003907 85.003906,85.003907zm1.980469,-70.003907l-3.960937,0c-18.40625,0 -33.382813,-14.976562 -33.382813,-33.386719c0,-13.789062 8.40625,-25.65625 20.363281,-30.738281l0,-16.765625l30,0l0,16.765625c11.957032,5.082031 20.363282,16.949219 20.363282,30.738281l-30,0c0,-1.863281 -1.519532,-3.382812 -3.386719,-3.382812l-3.957031,0c-1.867188,0 -3.386719,1.519531 -3.386719,3.382812c0,1.867188 1.519531,3.386719 3.386719,3.386719l3.957031,0c18.410156,0 33.386719,14.976563 33.386719,33.382813c0,13.792968 -8.40625,25.65625 -20.363282,30.742187l0,16.765625l-30,0l0,-16.765625c-11.957031,-5.085937 -20.363281,-16.949219 -20.363281,-30.742187l30,0c0,1.867187 1.515625,3.386718 3.382813,3.386718l3.960937,0c1.863281,0 3.382813,-1.519531 3.382813,-3.386718c0,-1.863282 -1.515626,-3.382813 -3.382813,-3.382813zm0,0"/>
    <path fill="#FFFFFF" class="active-path" d="m512,0.5l-512,0l0,86.003906l512,0l0,-86.003906zm-429.652344,57.648438l-30.003906,0l0,-30l30.003906,0l0,30zm50.003906,0l-30.003906,0l0,-30l30.003906,0l0,30zm20,0l0,-30l30.003907,0l0,30l-30.003907,0zm0,0"/>
   </g>
  </symbol>
 </defs>
 <g>
  <title>background</title>
  <rect fill="none" id="canvas_background" height="302" width="302" y="-1" x="-1"/>
  <g display="none" overflow="visible" y="0" x="0" height="100%" width="100%" id="canvasGrid">
   <rect fill="url(#gridpattern)" stroke-width="0" y="0" x="0" height="100%" width="100%"/>
  </g>
 </g>
 <g>
  <title>Layer 1</title>
  <use x="5.990589" y="3.424742" transform="matrix(0.5743347574025393,0,0,0.5782023537904024,-0.4702969789505005,0) " xlink:href="#svg_2" id="svg_3"/>
  <use x="568.062101" y="611.765152" transform="matrix(0.31790718416819597,0,0,0.28283989457059217,-111.97524836059868,-95.65795198568306) " xlink:href="#svg_32" id="svg_33"/>
 </g>
</svg>