<svg width="300" height="300" xmlns="http://www.w3.org/2000/svg" xmlns:xlink="http://www.w3.org/1999/xlink">
 <!-- Created with Method Draw - http://github.com/duopixel/Method-Draw/ -->
 <defs>
  <symbol height="512px" width="512px" viewBox="0 0 512 512" y="0px" x="0px" id="svg_2" xmlns:xlink="http://www.w3.org/1999/xlink">
   <g>
    <g>
     <g>
      <path fill="#4B7CF3" class="active-path" d="m256,0c-140.61,0 -256,115.39 -256,256s115.39,256 256,256s256,-115.39 256,-256s-115.39,-256 -256,-256z"/>
     </g>
    </g>
   </g>
  </symbol>
 </defs>
 <g>
  <title>background</title>
  <rect fill="none" id="canvas_background" height="302" width="302" y="-1" x="-1"/>
  <g display="none" overflow="visible" y="0" x="0" height="100%" width="100%" id="canvasGrid">
   <rect fill="url(#gridpattern)" stroke-width="0" y="0" x="0" height="100%" width="100%"/>
  </g>
 </g>
 <g>
  <title>Layer 1</title>
  <use x="5.990589" y="3.424742" transform="matrix(0.5743347574025393,0,0,0.5782023537904024,-0.4702969789505005,0) " xlink:href="#svg_2" id="svg_3"/>
  <g stroke="null" id="svg_94">
   <g stroke="null" transform="matrix(0.03814697265625,0,0,0.03814697265625,0,0) " id="svg_89">
    <circle stroke="null" id="svg_90" fill="#FFFFFF" class="active-path" r="8" cy="168" cx="296"/>
    <circle stroke="null" id="svg_91" fill="#FFFFFF" class="active-path" r="8" cy="168" cx="376"/>
    <path stroke="null" id="svg_92" fill="#FFFFFF" class="active-path" d="m488,432l-8,0l0,-120a56.1,56.1 0 0 0 -44.809,-54.875a74.911,74.911 0 0 0 28.809,-59.332l0,-57.931c0,-68.298 -53.832,-123.862 -120,-123.862l-16,0c-66.168,0 -120,55.564 -120,123.862l0,57.931a77.143,77.143 0 0 0 0.678,10.207l-136.678,0a40.045,40.045 0 0 0 -40,40l0,160a39.788,39.788 0 0 0 8.022,24l-16.022,0a8,8 0 0 0 -8,8l0,32a8,8 0 0 0 8,8l464,0a8,8 0 0 0 8,-8l0,-32a8,8 0 0 0 -8,-8zm-24,-120l0,120l-24.022,0a39.788,39.788 0 0 0 8.022,-24a8,8 0 0 0 -8,-8l-104,0l0,-94l27.2,20.4a8,8 0 0 0 11.31,-1.75l37.607,-52.65l11.883,0a40.045,40.045 0 0 1 40,40zm-181.952,-104a55.319,55.319 0 0 1 -10.048,-32l0,-40l128,0l0,40a56.063,56.063 0 0 1 -56,56l-11.35,0a40.051,40.051 0 0 0 -36.65,-24l-13.952,0zm124.358,64l-26.2,36.687l-33.006,-14.287l16.8,-22.4l42.406,0zm-12,-10.667l-16,21.333l0,-34.666l8,0a72.383,72.383 0 0 0 8,-0.455l0,13.788zm-47.206,179.122l95.434,0a24.042,24.042 0 0 1 -34.634,-8.455l-80.022,0a39.835,39.835 0 0 0 7.222,-16l12,24.455zm-51.994,-386.662l0,86.069c-71.206,-59.475 -24.552,-107.862 32.794,-107.862l16,0c57.346,0 104,48.387 104,107.862l0,57.931c0,32.1 -25.121,58.207 -56,58.207l-24,0l0,-12.128a72.115,72.115 0 0 0 48,-67.872l0,-48a8,8 0 0 0 -8,-8l-16,0l0,-24a8,8 0 0 0 -16,0l0,24l-16,0l0,-24a8,8 0 0 0 -16,0l0,24l-16,0l0,-24a8,8 0 0 0 -16,0l0,24l-16,0l0,-24a8,8 0 0 0 -16,0l0,24l-16,0a8,8 0 0 0 -8,8l0,48a72.25,72.25 0 0 0 7.513,32l-38.654,0a60.927,60.927 0 0 1 -0.859,-10.207l71.206,-144zm-64.8,428.414l0,-234.207a24.027,24.027 0 0 1 24,-24l41.594,0a24.027,24.027 0 0 1 24,24l0,160a24.027,24.027 0 0 1 -24,24l-224,0a24.027,24.027 0 0 1 -24,-24l182.406,74.207zm608,-154.207l-806.406,0l0,120l448,0l358.406,-120z"/>
    <path stroke="null" id="svg_93" fill="#FFFFFF" class="active-path" d="m184,264a64,64 0 1 0 64,64a64.072,64.072 0 0 0 -64,-64zm-48,64a48.07,48.07 0 0 1 40,-47.321l0,8.7a24,24 0 0 0 8,46.621a8,8 0 1 1 -8,8a8,8 0 0 0 -16,0a24.039,24.039 0 0 0 16,22.624l0,8.7a48.07,48.07 0 0 1 -40,-47.324zm56,47.321l0,-8.7a24,24 0 0 0 -8,-46.621a8,8 0 1 1 8,-8a8,8 0 0 0 16,0a24.039,24.039 0 0 0 -16,-22.624l0,-8.7a47.991,47.991 0 0 1 0,94.642l0,0.003z"/>
   </g>
  </g>
  <g stroke="null" id="svg_133">
   <g stroke="null" transform="matrix(0.4010289928705307,0,0,0.3640397588510528,-1468.2060637873703,-1322.3792975559404) " id="svg_126">
    <path stroke="null" id="svg_127" fill="#FFFFFF" class="active-path" d="m3927.928077,3910.886954a8,8 0 0 1 -5.244,10.024l-15.267,4.78l30.706,98.11l0,-132.878l-14.976,4.688l4.781,15.276z"/>
    <path stroke="null" id="svg_128" fill="#FFFFFF" class="active-path" d="m4094.312077,4252.555954l-92.189,0a8,8 0 0 1 -8,-8l0,-16l-16,0a8,8 0 0 1 -8,-8l0,-352a8,8 0 0 1 8,-8l16,0l0,-16a8,8 0 0 1 8,-8l96,0a8,8 0 0 1 8,8l0,16l16,0a8,8 0 0 1 8,8l0,266.341l4.089,5.659l11.911,0l0,-320l-192,0l0,448l157.494,0a88.722,88.722 0 0 1 -17.305,-16z"/>
    <path stroke="null" id="svg_129" fill="#FFFFFF" class="active-path" d="m3938.123077,4130.949954l0,-53.582l-48.365,-154.532a8,8 0 0 1 5.244,-10.025l15.267,-4.779l-4.781,-15.276a8,8 0 0 1 5.245,-10.024l27.39,-8.576l0,-16.763l-77.976,24.408l77.976,249.149z"/>
    <path stroke="null" id="svg_130" fill="#FFFFFF" class="active-path" d="m4089.973077,4079.331954l24.15,33.424l0,-236.2l-16,0a8,8 0 0 1 -8,-8l0,-16l-80,0l0,16a8,8 0 0 1 -8,8l-16,0l0,336l16,0a8,8 0 0 1 8,8l0,16l73.639,0a87.4,87.4 0 0 1 -9.611,-37.746l-50.391,-74.58a40.118,40.118 0 0 1 -2.225,-41.117a48.014,48.014 0 1 1 65.36,-7.729a40.352,40.352 0 0 1 3.078,3.948z"/>
    <path stroke="null" id="svg_131" fill="#FFFFFF" class="active-path" d="m4162.123077,3988.555954l0,160a8,8 0 0 1 -8,8l-24,0a8,8 0 0 1 -6.484,-3.314l-46.705,-64.636c-0.049,-0.068 -0.1,-0.137 -0.145,-0.206a24,24 0 1 0 -39.766,26.872l51.894,76.805a8,8 0 0 1 1.227,5.994a72.085,72.085 0 0 0 71.979,70.485l48,0l0,-184a24.1,24.1 0 0 0 -2.823,-11.294l-45.177,-84.706z"/>
    <path stroke="null" id="svg_132" fill="#FFFFFF" class="active-path" d="m4018.123077,4044.555954a31.972,31.972 0 0 0 13.627,26.187c0.888,-0.716 1.8,-1.405 2.76,-2.051a40.013,40.013 0 0 1 39.587,-2.952a32,32 0 1 0 -55.974,-21.184z"/>
   </g>
  </g>
 </g>
</svg>