<?xml version="1.0" encoding="UTF-8" standalone="no"?>
<svg
   xmlns:dc="http://purl.org/dc/elements/1.1/"
   xmlns:cc="http://creativecommons.org/ns#"
   xmlns:rdf="http://www.w3.org/1999/02/22-rdf-syntax-ns#"
   xmlns:svg="http://www.w3.org/2000/svg"
   xmlns="http://www.w3.org/2000/svg"
   xmlns:sodipodi="http://sodipodi.sourceforge.net/DTD/sodipodi-0.dtd"
   xmlns:inkscape="http://www.inkscape.org/namespaces/inkscape"
   width="210mm"
   height="297mm"
   viewBox="0 0 210 297"
   version="1.1"
   id="svg8"
   inkscape:version="1.0.1 (3bc2e813f5, 2020-09-07)"
   sodipodi:docname="drawing.svg">
  <defs
     id="defs2">
    <clipPath
       clipPathUnits="userSpaceOnUse"
       id="clipPath176">
      <rect
         style="fill:#ffffff;fill-opacity:1;stroke-width:1"
         id="rect178"
         width="120.38723"
         height="95.090302"
         x="-22.678572"
         y="86.934525"
         ry="0.75595164" />
    </clipPath>
    <clipPath
       clipPathUnits="userSpaceOnUse"
       id="clipPath122">
      <rect
         style="fill:#567aec;fill-opacity:1;stroke-width:1"
         id="rect124"
         width="148.92262"
         height="115.66071"
         x="223.00594"
         y="68.035713"
         ry="0.75595164" />
    </clipPath>
    <clipPath
       clipPathUnits="userSpaceOnUse"
       id="clipPath194">
      <rect
         style="fill:#567aec;fill-opacity:1;stroke-width:1"
         id="rect196"
         width="92.377159"
         height="133.6851"
         x="868.72406"
         y="-74.351273"
         ry="0.75595164" />
    </clipPath>
  </defs>
  <sodipodi:namedview
     id="base"
     pagecolor="#ffffff"
     bordercolor="#666666"
     borderopacity="1.0"
     inkscape:pageopacity="0.0"
     inkscape:pageshadow="2"
     inkscape:zoom="0.32"
     inkscape:cx="462.11401"
     inkscape:cy="433.55645"
     inkscape:document-units="mm"
     inkscape:current-layer="layer1"
     inkscape:document-rotation="0"
     showgrid="false"
     inkscape:window-width="1366"
     inkscape:window-height="705"
     inkscape:window-x="-8"
     inkscape:window-y="-8"
     inkscape:window-maximized="1" />
  <metadata
     id="metadata5">
    <rdf:RDF>
      <cc:Work
         rdf:about="">
        <dc:format>image/svg+xml</dc:format>
        <dc:type
           rdf:resource="http://purl.org/dc/dcmitype/StillImage" />
        <dc:title></dc:title>
      </cc:Work>
    </rdf:RDF>
  </metadata>
  <g
     inkscape:label="Layer 1"
     inkscape:groupmode="layer"
     id="layer1">
    <path
       style="fill:#567aec;fill-opacity:1;stroke:none;stroke-width:1.00186"
       d="m 389.33192,-247.12163 c -30.02182,7.43687 -19.40797,59.56772 10.22601,51.6117 27.68289,-7.43213 17.45457,-58.46859 -10.22601,-51.6117 m 82.73756,-0.054 c -29.10316,6.36387 -20.75689,57.73881 8.36672,52.04908 29.08644,-5.68248 20.4083,-58.34131 -8.36672,-52.04908 m -40.90391,35.63024 c -29.58975,6.42822 -21.31553,58.0907 8.36671,52.04543 28.56023,-5.81637 19.71847,-58.14684 -8.36671,-52.04543 m -24.17054,20.0095 c -7.58443,2.35484 -14.53301,4.79324 -22.31126,1.5671 -4.81461,-1.9969 -10.65465,-10.34098 -15.80382,-9.29077 -12.92944,2.63698 -24.093,31.1198 -14.5076,43.111 5.32355,6.66069 28.54409,7.59247 35.54062,3.9107 3.72654,-1.96183 6.47092,-7.82569 9.64496,-10.87047 2.38035,-2.28467 6.76814,-4.01542 8.25416,-7.25454 1.94816,-4.24539 -1.14374,-15.80245 -0.81706,-21.17302 m 55.77811,0 c 0.26866,5.34669 -2.77496,16.90708 -0.81717,21.17302 1.4865,3.23912 5.87346,4.96987 8.25426,7.25454 3.17376,3.04478 5.91804,8.90864 9.64495,10.87047 6.99645,3.68177 30.21686,2.74999 35.54089,-3.9107 9.7519,-12.19958 -1.6938,-40.03297 -14.50789,-42.98608 -5.13811,-1.18422 -11.00222,7.17411 -15.80379,9.16585 -7.77826,3.22614 -14.72636,0.78774 -22.31125,-1.5671 m -52.05956,27.84129 c -13.77657,2.11621 -26.51322,35.27826 -12.92743,45.33243 5.37133,3.9744 13.36343,2.40559 19.43487,2.40559 15.91608,0 34.58243,3.14193 50.20028,-0.36712 18.0154,-4.04884 8.20869,-35.98326 -1.86018,-43.78738 -11.36943,-8.81256 -22.18388,10.37705 -36.25484,6.88527 -6.09339,-1.51157 -12.94481,-11.33583 -18.5927,-10.46879 z"
       id="path98" />
    <path
       style="fill:#567aec;fill-opacity:1;stroke:none;stroke-width:0.30712"
       d="m -345.49522,253.22246 c -4.98337,0.66222 -9.74374,2.136 -13.9875,4.83085 -3.84139,2.43937 -7.18303,5.58211 -9.73824,9.30237 -15.78992,22.98955 4.34514,53.65976 32.11824,50.28629 4.46854,-0.54287 8.88486,-2.09867 12.74417,-4.34483 24.82376,-14.44675 18.87908,-52.88468 -9.325,-59.39826 -3.75393,-0.86696 -7.9766,-1.18608 -11.81167,-0.67642 m 22.69084,16.86429 -2.48667,6.9794 h -0.31083 l -1.24334,-2.42762 c -6.6624,5.97315 -15.81986,10.26125 -24.55582,12.40301 -2.58051,0.633 -5.11868,1.09487 -7.77083,1.27935 -0.73414,0.051 -1.9198,0.44669 -2.47803,-0.21454 -0.84516,-1.00139 -0.31947,-3.73094 -0.31947,-4.97115 12.50298,8.6e-4 23.40947,-3.11764 33.88082,-10.01392 l -2.17583,-1.82072 7.46,-1.21381 m -7.36117,11.41071 c 1.02856,-0.49401 4.98732,-0.6072 5.57636,0.52042 0.57535,1.10184 0.23064,2.94896 0.23064,4.15184 v 9.10357 c 0,1.45323 0.70217,5.16961 -0.97851,5.88605 -0.98005,0.41756 -4.5049,0.58961 -5.22945,-0.30345 -0.68477,-0.84419 -0.31954,-2.752 -0.31954,-3.76189 v -9.71048 c 0,-1.28238 -0.67452,-5.21572 0.7205,-5.88606 m -7.42394,3.33799 c 0.66239,-0.32805 1.63468,-0.18268 2.35177,-0.18299 0.83709,-3e-4 2.21469,-0.23396 2.9209,0.31196 0.78362,0.60598 0.49827,2.17544 0.49827,3.02601 v 7.88976 c 0,1.23353 0.60518,4.60428 -0.75657,5.27915 -0.5853,0.28981 -1.40776,0.18178 -2.04093,0.18299 -0.96296,0.003 -2.47859,0.24853 -3.23173,-0.48644 -0.75378,-0.73617 -0.49827,-2.21398 -0.49827,-3.15498 v -7.58631 c 0,-1.23354 -0.60519,-4.60428 0.75656,-5.27915 m -7.23803,2.73106 c 0.63812,-0.27189 1.45219,-0.18177 2.1298,-0.18299 4.99758,-0.008 3.41917,5.02123 3.41917,8.80012 0,1.17164 0.58095,4.3503 -0.72051,4.9757 -0.59991,0.28798 -1.43077,0.18178 -2.07699,0.18299 -5.2389,0.0103 -3.72999,-4.82792 -3.72999,-8.80011 0,-1.33793 -0.58615,-4.30872 0.97852,-4.97571 m -7.40721,3.03452 c 0.60001,-0.28797 1.43067,-0.18176 2.07702,-0.18298 4.39716,-0.008 3.41916,2.84517 3.41916,6.3725 0,1.09395 0.50872,3.77828 -0.72048,4.36879 -0.60003,0.28798 -1.43064,0.18178 -2.07702,0.18299 -4.39717,0.008 -3.41917,-2.84517 -3.41917,-6.37249 0,-1.09396 -0.5087,-3.77829 0.72049,-4.36881 m -7.46,3.33798 c 3.50941,-1.68568 5.8068,0.26491 5.80702,3.45844 6e-5,1.16405 0.38055,3.18261 -0.97854,3.76189 -3.56793,1.52061 -5.54896,-0.23699 -5.54896,-3.45843 0,-1.01141 -0.42435,-3.21174 0.72048,-3.7619 z"
       id="path242" />
    <path
       style="fill:#567aec;fill-opacity:1;stroke:none;stroke-width:0.848516"
       d="m 690.60984,-251.49857 c -5.67945,0.82886 -11.12942,2.47034 -15.90155,5.84337 -29.92005,21.14801 -9.87537,68.82265 25.10772,63.35478 42.09645,-6.58046 32.69528,-75.31305 -9.20617,-69.19815 m 29.29235,39.20401 c -1.59351,5.65988 -3.55107,10.78699 -7.78341,14.95517 -14.10634,13.89198 -40.78255,6.99235 -43.82955,-14.0949 -0.95726,-6.62503 11.92987,-15.96066 18.08695,-15.09722 5.48671,0.76944 2.03305,10.44393 6.83549,13.22268 6.2955,3.64283 19.56075,1.01427 26.69052,1.01427 m -74.48625,105.81311 c -6.17985,0 -24.29698,3.24235 -25.40348,-6.02533 -0.86832,-7.27271 9.12815,-18.82785 12.49125,-24.94436 1.45449,-2.64532 3.94617,-7.3794 0.16454,-9.38899 -4.56483,-2.42422 -8.15893,6.44686 -9.84031,9.38899 -5.37574,9.40705 -16.89321,23.85096 -7.36248,34.32043 7.41178,8.141592 25.83683,4.391682 35.80886,4.391682 h 82.8555 c 9.51331,0 25.72034,3.18643 34.31304,-1.25341 15.57349,-8.046112 3.21463,-25.656672 -2.38439,-35.738172 -1.80693,-3.2544 -5.79989,-13.71957 -10.87918,-11.10952 -3.95362,2.03197 -1.10642,6.72989 0.35821,9.38899 3.21796,5.84036 13.58075,18.09834 12.45259,24.94436 -1.53073,9.29091 -19.05509,6.02533 -25.49104,6.02533 3.06567,-13.2361 2.0354,-27.78498 3.58623,-41.29292 0.66367,-5.77498 2.11825,-13.8383 -1.74833,-18.74269 -5.00984,-6.3548 -14.92152,-4.48459 -21.92409,-4.48459 h -56.91082 c -7.16089,0 -17.80691,-2.0827 -22.8882,4.46308 -4.0267,5.18743 -2.51881,12.72683 -1.73779,18.7642 1.75561,13.57074 1.45366,27.9751 4.53981,41.29292 m 46.86841,-37.40537 c 9.79386,-0.4267 10.71029,15.26548 0.83558,15.76702 -9.96442,0.50669 -10.80577,-15.33345 -0.83558,-15.76702 z"
       id="path274" />
    <text
       xml:space="preserve"
       style="font-style:normal;font-weight:normal;font-size:10.5833px;line-height:1.25;font-family:sans-serif;fill:#000000;fill-opacity:1;stroke:none;stroke-width:0.264583"
       x="-406.27716"
       y="381.66147"
       id="text39"><tspan
         sodipodi:role="line"
         id="tspan37"
         x="-406.27716"
         y="381.66147"
         style="stroke-width:0.264583">Business scaling</tspan></text>
    <g
       id="g315"
       transform="translate(881.65536,-334.421)">
      <g
         id="g152"
         transform="matrix(1.3506675,0,0,1.1753681,-514.03587,25.016795)">
        <g
           id="g306"
           transform="matrix(1.4956737,0,0,1.5585315,-234.35958,-29.893858)">
          <path
             style="fill:#567aec;fill-opacity:1;stroke:none;stroke-width:0.543182"
             d="m 422.16117,49.687142 h 80.05592 c -0.006,-9.507395 -8.4555,-7.186751 -15.47749,-7.186751 h -48.03354 c -7.14755,0 -16.53864,-2.601876 -16.54489,7.186751 m 9.60671,22.113065 h 0.5337 c 2.65097,11.454063 17.09617,11.454063 19.74714,0 h 0.5337 c 1.13904,11.444883 18.07449,11.444883 19.21341,0 h 0.53371 c 2.65093,11.454063 17.09622,11.454063 19.74714,0 3.33886,8.674282 16.08429,13.438373 19.62542,1.658475 1.4218,-4.7306 -5.51584,-16.594916 -9.15359,-19.568179 -1.73775,-1.420389 -4.66619,-0.886398 -6.73591,-0.886398 h -17.07858 -38.96055 c -4.7994,0 -12.5667,-1.546255 -17.02297,0.333573 -3.4477,1.454314 -10.42447,14.089275 -10.45507,17.909691 -0.0953,11.899091 18.31522,12.180311 19.47245,0.552838 M 422.16117,83.96237 V 140.9035 H 469.1273 V 89.49065 c 5.6525,0 16.59507,2.2196 21.65887,-0.33358 1.99927,-1.00814 3.17981,-4.70245 5.02643,-6.30035 l -3.20222,-3.31695 c -4.06045,2.39301 -7.85081,5.31597 -12.80895,4.00202 -2.39101,-0.63365 -5.11397,-3.412866 -7.47189,-3.365608 -3.2049,0.06436 -5.99725,3.609018 -9.60671,3.714548 -3.9896,0.11664 -6.63081,-3.558158 -10.14041,-3.743956 -2.83884,-0.150323 -6.00323,3.227176 -9.073,3.647546 -4.48041,0.61353 -7.35912,-3.695263 -11.20784,-3.618138 -3.21125,0.06436 -6.51756,3.479268 -10.14041,3.786188 m 71.51662,16.03198 c 2.6808,0.64239 6.26944,2.8946 9.01695,2.48661 2.04357,-0.30406 6.0848,-6.31273 5.52813,-8.40263 -0.84645,-3.17925 -4.67686,-4.11595 -6.99688,-4.92894 -1.41699,-0.49651 -1.60751,-2.28219 -2.89588,-2.87846 -2.94553,-1.36283 -4.23496,5.24339 -4.49221,7.0895 -0.30315,2.17869 -0.16011,4.43864 -0.16011,6.63392 m -31.48866,-10.5037 v 23.77152 H 429.09935 V 89.49065 h 33.08978 m 10.14041,3.31696 v 20.45456 c 7.75529,0 9.33346,-2.15104 15.47748,-6.63391 l 2.66853,-13.82065 h -18.14601 m 19.08641,9.41297 c -1.4074,1.1941 0.0993,2.57285 1.22592,3.03556 2.05477,0.84307 8.3637,3.2628 10.31814,1.80609 1.35401,-1.00891 0.30047,-2.53138 -0.82191,-3.05437 -2.00833,-0.93592 -8.82536,-3.39766 -10.72215,-1.78728 m 9.20001,6.06617 c -7.18421,-1.44289 -9.5512,-1.15485 -14.94377,4.4226 -3.25186,3.36339 -6.50213,6.68092 -8.47364,11.05654 -2.89749,6.43268 -2.32429,18.2615 4.73984,21.79627 3.86244,1.93325 9.68676,0.8696 13.87421,0.8696 3.88486,0 9.00897,0.90332 12.21762,-1.89011 3.15793,-2.7492 4.05509,-8.43503 4.27764,-12.48338 0.30955,-5.63993 -2.62049,-10.79835 -6.05543,-14.91801 -2.36112,-2.83213 -6.29773,-4.64319 -5.63647,-8.85351 m -5.33705,7.18674 5.33705,9.95087 h -3.20223 l -2.13482,-3.31696 5.30558,11.05652 -5.30558,9.39805 h -3.20223 v -3.31695 c -3.53315,-0.74079 -4.72064,-3.08201 -4.80336,-6.63392 h 3.20223 l 1.60113,3.31696 c -0.016,-4.66751 -10.81129,-15.40451 0,-17.13762 v -3.31695 h 3.20223 m -22.94937,1.65847 v 9.95088 h 0.53371 l 4.26966,-9.95088 h -4.80337 m 18.67972,4.97544 c -0.47286,2.08636 -0.8011,3.71942 1.06742,4.97544 v -4.97544 h -1.06742 m 4.26965,8.84522 v 4.97544 c 2.10974,-1.20627 2.10601,-2.66517 1.60111,-4.97544 z"
             id="path210" />
          <path
             style="fill:#567aec;fill-opacity:1;stroke:none;stroke-width:0.102884"
             d="m 439.69359,93.384981 c 2.0455,0 5.11492,-0.519596 6.188,2.112591 h -3.7128 l -1.50564,0.114274 -0.96956,1.664748 h 6.37839 c -0.064,3.515456 -3.68156,3.669236 -5.90238,3.669236 0,0.52213 -0.0871,1.17137 0.0703,1.66783 0.24862,0.78455 0.95708,1.48303 1.4125,2.11259 0.99063,1.36941 1.96983,2.74992 2.96574,4.11398 0.55516,0.76043 1.17728,2.07713 1.93837,2.55423 0.61999,0.38873 1.79809,0.10186 2.46668,0.003 l -1.72503,-2.77972 -4.36775,-6.33777 c 1.76772,-0.26096 3.55498,-0.69671 4.70962,-2.44615 0.42698,-0.647015 0.50475,-1.863976 0.96323,-2.379068 0.39879,-0.448181 1.25017,-0.05634 1.74388,-0.213631 0.5432,-0.173033 0.99388,-1.278147 1.15124,-1.854861 -0.58728,0.163313 -2.51661,0.45723 -2.97718,-0.06709 -0.41174,-0.468682 -0.53911,-1.384396 -0.92601,-1.934305 1.78396,0 3.16168,0.394785 3.90319,-1.890206 h -7.42559 c -0.91131,0 -2.3806,-0.329834 -3.22789,0.06709 -0.51688,0.242138 -0.9252,1.264926 -1.15129,1.823117 z"
             id="path79" />
          <path
             style="fill:#567aec;fill-opacity:1;stroke-width:1"
             id="path91"
             d="m 488.79246,124.92113 c 3.75637,0.34131 -1.11924,7.1106 1.40502,8.43359 2.41551,1.266 5.33233,-1.59046 5.34516,-3.74137 0.004,-0.70681 -0.97903,-1.01975 -1.46857,-1.52962 0,-0.3518 -4.97509,-0.3518 -4.97509,0 v 0 c 0.0596,0.50987 0.12832,1.01876 0.17886,1.52962 0.096,0.97066 -0.56764,2.3996 0.26075,2.91455 8.62597,5.36218 5.78553,-3.8854 5.60533,-7.60677 0,-0.44911 -6.35146,-0.44911 -6.35146,0 z" />
          <path
             style="fill:#567aec;fill-opacity:1;stroke-width:1"
             id="path93"
             d="m 495.50391,123.33476 c 0.44373,-1.9181 0.62878,-3.91511 1.3312,-5.75429 0.80031,-2.09552 6.29965,-4.89845 -2.89809,-4.92124 -1.05373,-0.003 -1.09495,1.82911 -1.85259,2.56144 -0.50188,0.48511 -1.22473,0.66999 -1.8371,1.00499 -0.22948,0.27454 3.6531,3.51987 3.88257,3.24533 v 0 c 1.20901,-0.1252 2.68952,0.39799 3.62701,-0.3756 0.56679,-0.46769 -0.1235,-1.5628 -0.60163,-2.12082 -1.25683,-1.46683 -2.57384,-3.18619 -4.42328,-3.74372 -2.24599,-0.67709 4.56465,11.85221 -3.64246,6.02156 -0.28867,0.45356 6.12571,4.53591 6.41437,4.08235 z" />
          <path
             style="fill:#567aec;fill-opacity:1;stroke-width:1"
             id="path95"
             d="m 492.9705,129.36235 c -0.3641,1.98437 -1.21899,3.93961 -1.09226,5.95312 0.24196,3.84441 4.77248,3.20709 6.81003,1.24024 2.58284,-2.49321 -1.30685,-7.19697 -3.13838,-7.82091 -2.08296,-0.70959 -4.39531,0.22412 -6.59294,0.33618 -1.31331,1.14545 -3.38487,1.78445 -3.93993,3.43633 -0.97923,2.91402 3.61251,7.84888 6.58217,6.71078 5.89685,-2.25991 -0.59436,-8.19341 -1.63904,-9.21912 -0.67387,-0.66164 -1.58266,-1.03087 -2.374,-1.54631 -3.87972,5.49682 -5.43182,4.25649 0.36099,8.41766 1.48207,1.06462 5.95506,3.72934 7.82783,0.78539 0.32362,-0.50872 -0.55126,-4.26468 -0.88119,-5.74477 -0.98219,1.2316 -2.25338,2.28022 -2.94659,3.69478 -0.14972,0.30552 0.76229,0.1211 0.9321,0.41592 0.0927,0.16092 1.08292,5.64963 3.50552,4.0454 3.87406,-2.56537 3.18826,-5.90024 3.41048,-9.69116 -1.08619,-0.93589 -2.06579,-2.01207 -3.25855,-2.80767 -3.32217,-2.21595 -3.68705,0.60937 -5.80586,4.20201 -0.22924,0.38872 -0.45334,1.15718 -0.0468,1.35305 0.37391,0.18014 0.29194,-0.84902 0.64706,-1.06384 1.29807,-0.78519 2.77384,-1.22958 4.16076,-1.84437 -1.5548,0.86005 -2.92814,2.20277 -4.66445,2.58016 -1.56786,0.34078 3.26681,-1.11526 4.13441,-2.46495 0.59634,-0.9277 -0.60931,-2.18869 -0.44228,-3.2788 0.4127,-2.69313 2.28515,-5.1637 2.15294,-7.88505 -0.34327,-7.06606 -6.58524,-0.71625 -7.65283,-0.0276 -1.44296,6.61521 -0.42389,6.75628 -5.42909,11.46253 -0.26845,0.25239 -0.30557,-0.89534 -0.003,-1.10533 1.22777,-0.85155 2.99945,-0.7714 4.12519,-1.75387 0.72814,-0.63543 1.87863,-2.31403 1.0019,-2.72059 -0.8808,-0.40844 -1.03163,1.64507 -1.54744,2.4676 -0.0687,0.66508 -0.64201,5.50374 -0.25821,5.63241 1.20592,0.40431 2.41208,-1.22707 3.0039,-2.35288 1.97985,-3.76604 2.70483,-10.19312 0.66294,-14.08521 -3.86713,3.31013 -6.68002,3.37531 -3.59336,8.80997 0.7865,1.38478 1.95942,3.08431 3.54777,3.19985 2.44541,0.17789 4.80166,-1.23767 6.94023,-2.43692 4.86124,-2.72603 1.401,-4.01893 4.07842,-2.72415 -8.72643,-0.15553 -4.06479,-1.89205 -5.46785,3.66037 -0.19926,0.78856 -2.24253,1.85486 -1.43761,1.97155 1.87838,0.27232 3.93811,-0.33704 5.5245,-1.37905 0.72736,-0.47777 0.93723,-1.82457 0.48148,-2.56594 -0.55779,-0.90737 -1.92862,-0.90456 -2.89292,-1.35684 -4.36425,4.13448 -5.04156,2.76609 -5.09096,7.09544 -0.007,0.57378 -0.15163,-1.28157 0.2353,-1.7053 0.65661,-0.71903 2.17133,-0.48982 2.57744,-1.37481 2.35061,-5.12266 -2.60279,-1.59316 0.25656,-3.40058 0.27916,3.46581 -3.92276,0.97016 -2.80503,-0.83135 0.52536,-0.84674 1.8601,-0.83904 2.5532,-1.55497 0.27956,-0.28873 0.31295,-1.40637 0.34277,-1.94012 0.0491,0.48972 0.57978,1.2341 0.14735,1.46915 -1.09014,0.59256 -2.7078,-0.29429 -3.69398,0.45868 -1.20232,0.91798 -2.24312,6.54269 -2.51696,7.63932 -0.87265,3.49479 -0.84473,3.75441 -0.70472,2.05187 1.76845,0.54467 3.53687,1.08933 5.3053,1.634 0.11017,-0.36854 0.71381,-1.07331 0.33051,-1.10562 -1.85274,-0.15618 -3.05104,0.31933 -4.0164,1.53521 -0.71117,0.89569 -1.6455,1.67775 -2.06039,2.74353 -0.29263,0.75173 0.0336,1.61301 0.0505,2.41951 10.23043,1.01932 3.87046,2.33744 8.68833,-2.72124 0.52536,-0.5516 1.30675,-0.81268 2.03203,-1.04559 0.2509,-0.0806 0.69339,0.39313 0.77742,0.14338 0.9887,-2.93819 0.74213,-3.76473 0.46821,-6.18447 0.32859,-0.58655 1.26254,-1.14693 0.98579,-1.75965 -1.10207,-2.43993 -3.70846,0.86044 -4.17412,0.97418 -0.34068,0.0832 -0.52287,-0.75156 -0.28795,-1.01194 3.63413,-4.02768 4.15301,-1.27622 3.75632,-3.11937 -0.18484,-0.71043 -0.37452,-1.4196 -0.55454,-2.13127 -0.11579,-0.4578 0.65656,1.00066 0.36189,1.36967 -0.61603,0.77144 -2.23282,0.50876 -2.59519,1.42707 -0.33983,0.86124 0.81195,1.68282 1.01121,2.58699 1.49548,6.786 -0.28202,1.90033 0.57547,4.1794 1.02973,-0.7346 2.26568,-1.2437 3.08922,-2.2038 0.21431,-0.24986 -0.15406,-1.04531 -0.44087,-0.8837 -1.62777,0.91722 -3.49105,1.89503 -4.32295,3.56803 -0.39307,0.79045 1.30408,1.34779 1.44523,2.21921 0.20537,1.26774 -0.32263,2.13542 -0.84701,3.07333 1.30593,-0.7556 2.80199,-1.25127 3.91785,-2.26679 0.27987,-0.25471 -0.8758,0.006 -1.09414,-0.303 -1.24674,-1.76502 0.87461,-4.97848 -4.57525,-2.81084 -0.40624,0.16158 -2.05351,3.22137 -2.66057,4.32835 0.25114,-0.24827 1.64182,-1.29953 1.28712,-2.02474 -0.4594,-0.93919 -1.77118,-1.40256 -1.98922,-2.42508 -0.20293,-0.95161 1.7222,-3.26824 0.87842,-2.78369 -6.57765,3.77737 -5.13212,4.08754 -3.09195,8.40113 4.04574,2.34057 3.19201,3.07389 7.32957,-2.58035 0.4903,-0.67002 1.22505,-2.17038 0.44365,-2.45092 -6.89028,-2.47374 -4.99565,4.69219 -4.51964,7.75429 1.11456,0.60838 2.10643,2.1108 3.34367,1.82514 6.93354,-1.60081 7.00228,-9.68293 -1.45409,-7.52568 -1.06307,0.27119 -0.93639,1.99789 -1.57443,2.89042 -0.51499,0.72034 -1.23524,1.26911 -1.85283,1.90366 0.23699,-0.37953 0.44008,-0.78246 0.71099,-1.13859 0.27125,-0.35662 1.20174,-0.65175 0.90858,-0.99059 -0.41934,-0.48468 -1.36038,-0.49388 -1.91495,-0.17262 -0.37388,0.21658 0.82942,0.92779 1.13634,0.62367 2.04353,-2.02487 3.0322,-6.84921 3.73702,-9.25137 -0.35269,-0.85869 -0.19166,-2.24272 -1.05804,-2.57608 -1.5272,-0.58763 -3.31999,-0.1391 -4.9009,0.28322 -1.17195,0.31307 -4.28861,1.51176 -3.12703,1.86136 2.41747,0.72761 5.17779,0.3205 7.55536,-0.52854 0.96443,-0.34441 1.86433,-1.74911 1.47367,-2.69577 -0.33406,-0.80952 -1.1961,1.27945 -1.79413,1.91917 -4.95605,2.88207 -0.74293,-0.52355 -2.35916,7.11493 -0.3125,1.47686 -2.15977,2.48007 -2.14299,3.98953 0.0148,1.32615 0.92207,3.55179 2.22398,3.29905 3.69149,-0.71662 5.68931,-4.92963 7.34496,-7.79323 -1.27058,0.14155 -2.62414,-0.0487 -3.81177,0.42463 -0.60904,0.24272 -1.79213,1.82184 -1.18774,1.56778 0.85915,-0.36114 9.31958,-7.81466 7.55221,-8.80533 -1.59276,-0.8928 -3.269,1.62778 -4.90352,2.44167 -0.49951,3.57143 -0.22532,7.21064 -0.67448,10.78432 -0.0588,0.46761 -1.00647,1.44909 -0.55999,1.29824 1.62933,-0.55046 3.38103,-1.26439 4.44924,-2.61222 0.59496,-0.75072 -0.0479,-1.91553 -0.10287,-2.87185 -0.008,-0.14488 -0.0249,0.28919 -0.0373,0.43378 -1.43838,0.61176 -2.87677,1.22352 -4.31515,1.83528 -0.54898,1.00287 -0.70831,2.3559 -1.64697,3.00861 -0.47707,0.33173 -1.96774,-0.3655 -1.55948,-0.779 0.82843,-0.83909 2.24996,-0.70654 3.37494,-1.05981 -0.22484,-0.38059 -5.60721,2.79937 -5.38234,3.17996 v 0 c 1.89672,0.85298 3.61516,2.41929 5.69018,2.55894 4.56967,0.30754 6.96947,-2.9788 4.85474,-7.23717 -1.12983,-2.27509 -3.55976,-3.62467 -5.33967,-5.437 -0.51464,1.04517 -1.3141,1.99339 -1.54392,3.13551 -0.978,4.86045 -0.29884,8.71139 6.93187,8.71222 1.42582,1.7e-4 1.83806,-2.28882 2.20126,-3.66762 1.89764,-7.20369 0.31403,-8.46844 -1.93223,-15.5454 -2.3623,0.22539 -5.16678,-0.71825 -7.08692,0.67616 -3.18463,2.31269 -0.39057,11.64986 1.31898,12.85757 1.76281,1.24534 7.65781,-3.71681 4.57615,-6.20184 -1.574,-1.26926 -4.00047,-0.59177 -6.00072,-0.88766 -2.0932,4.23292 -1.67084,1.32017 0.5924,5.16128 0.47162,0.8004 0.36595,3.23699 1.03169,2.58904 0.95374,-0.92823 0.0103,-2.69814 0.39074,-3.97344 2.96402,-9.93312 4.0709,-2.72757 0.34787,-12.53524 -1.13408,-0.0595 -8.441,-1.59417 -8.03968,2.83341 0.20233,2.23212 2.19083,4.10885 4.04074,5.37418 0.60989,0.41715 1.93278,-0.80287 1.64658,-1.48409 -2.27464,-5.41425 -3.02971,-3.9458 -4.69339,-2.25411 -0.43526,1.6783 -0.75959,3.38934 -1.30577,5.03489 -0.58618,1.7661 -1.96614,3.32176 -2.08425,5.17885 -0.18931,2.97664 1.38453,4.28536 3.60161,5.17577 1.50299,0.6036 2.99908,1.50959 4.61873,1.50891 1.08847,-5.2e-4 1.9295,-1.00802 2.89427,-1.51204 0.0676,-0.83346 -0.30675,-1.83742 0.20289,-2.50039 0.5136,-0.66814 2.79024,-0.1223 2.37834,-0.85751 -0.83283,-1.48649 -3.00848,-1.63174 -4.35671,-2.67362 -0.42715,-0.33009 1.0133,0.3843 1.54106,0.49776 0.55859,0.12009 1.25241,-0.15254 1.70238,0.19953 0.3065,0.23981 0.0292,0.7778 0.0438,1.16671 -0.17693,-0.67836 -0.40495,-1.34541 -0.53078,-2.03507 -0.19341,-1.05993 0.40767,-2.52068 -0.42519,-3.2042 -1.10225,-0.90459 -2.81011,-0.71464 -4.23277,-0.61851 -0.97917,0.0662 -3.16492,0.20698 -2.73527,1.08932 0.5183,1.0643 2.59681,-0.2371 3.51446,0.51076 0.53623,0.43703 -0.25709,1.35945 -0.38563,2.03918 0.19736,-3.95222 1.25778,-6.1361 -6.99047,-4.46286 -0.96933,0.19663 -0.0681,2.07974 0.42627,2.93635 1.02158,1.76998 5.98045,5.67148 7.82447,5.76558 1.40573,0.0717 2.37635,-1.50929 3.56452,-2.26394 -0.52515,-2.82752 0.37557,-0.19194 -1.60433,-0.47763 -0.76753,-0.11076 -1.231,-1.55066 -1.95215,-1.26552 -1.50855,0.59646 0.2531,4.68311 2.43472,4.66115 2.11765,-0.0213 3.87109,-1.71871 5.80663,-2.57806 1.11786,-3.82592 1.19729,-1.60016 -1.31765,-5.3423 -0.44458,-0.66148 -0.41765,-1.97756 -1.21013,-2.06212 -1.59189,-0.16985 -3.19736,0.6381 -4.58049,1.44426 -0.32459,0.18918 0.57795,0.4801 0.86696,0.72015 2.18665,0.10694 4.3733,0.21388 6.55995,0.32082 2.06009,-5.01208 1.83485,-2.01966 -1.05741,-7.6612 -0.70416,-1.37352 -0.75287,-3.2401 -1.96848,-4.19127 -1.3979,-1.09384 -7.74528,-4.12968 -7.70802,1.02916 0.008,1.08563 1.33929,1.70904 2.00895,2.56357 -0.0819,2.34706 -1.40507,9.16007 5.31995,1.41024 0.6323,-0.72864 -1.75101,-0.90855 -2.70962,-1.01698 -1.13141,-0.12797 -2.46084,-0.31745 -3.40029,0.32589 -0.52462,0.35926 0.31056,1.28735 0.14718,1.90184 -0.288,1.08332 -0.97226,2.02009 -1.45841,3.03014 0.39101,0.75743 0.32086,2.29377 1.17301,2.27229 0.97533,-0.0246 2.25819,-1.51293 1.75032,-2.34599 -0.48765,-0.79988 -1.89682,0.30607 -2.69541,0.79582 -0.68694,0.42128 -1.07749,1.19959 -1.58242,1.82762 -3.03821,3.77893 -2.5382,1.93925 1.57038,6.10501 -0.24771,-0.32811 -0.84175,-0.58522 -0.74311,-0.98433 0.53544,-2.1666 4.40433,-5.69808 2.11524,-8.46688 -1.11816,-1.35248 -3.4498,-1.3075 -5.17316,-0.97661 -3.96547,0.76134 0.36631,6.5839 0.48432,6.83654 0.86249,-0.20919 1.88237,-0.0886 2.58749,-0.62756 1.2546,-0.95894 2.41305,-2.19432 3.01458,-3.65436 0.72938,-1.77038 0.82788,-3.76884 0.83259,-5.68358 0.0101,-4.03707 -0.96189,-7.68686 -5.94204,-8.62993 -1.08563,-0.20559 -1.57715,1.54792 -2.36574,2.32189 0.57621,3.22025 1.05391,8.60647 6.3958,6.534 0.87244,-0.33847 1.32014,-1.82574 0.89675,-2.66029 -1.98321,-3.90933 -4.97544,-1.65084 -7.55184,-0.76703 -0.11438,1.21088 -0.51282,2.42826 -0.34314,3.63263 0.57462,4.07875 2.62213,7.39826 7.28895,8.29093 4.17105,0.79785 5.57895,-8.24067 -0.82812,-5.50901 -0.42981,-0.67496 -1.66184,-2.73315 -1.28944,-2.02489 1.62441,3.08946 2.29999,4.17384 7.11324,3.32395 0.81129,-0.14325 1.09233,-1.30989 1.28587,-2.11067 1.33856,-5.53824 -0.70125,-5.17892 -4.80422,-9.89721 -0.48286,0.63091 -0.89384,1.32398 -1.44857,1.89273 -0.73842,0.75713 -2.18755,1.02965 -2.41006,2.06358 -0.0535,0.24854 2.2661,4.5692 1.04368,1.72363 -0.75436,-1.75603 -0.99434,-3.86824 -2.32321,-5.24186 -1.8067,-1.86756 -4.44182,-2.69782 -6.66273,-4.04674 -0.52266,0.89955 -1.38769,1.67402 -1.56798,2.69865 -0.6097,3.46523 -0.4241,12.859 2.09357,15.59905 1.3512,1.47057 4.30184,1.77526 5.9553,0.65528 3.1083,-2.1054 -4.71991,-10.10696 -2.12535,-11.06034 -1.91955,0.0912 -4.05783,-0.62097 -5.75868,0.27352 -5.44235,2.86214 -4.43151,8.68588 0.53094,11.99714 1.22632,0.81827 2.88861,-0.93122 3.98679,-1.9148 6.07619,-5.44213 4.5316,-6.04371 5.02513,-13.97613 -1.51678,-1.13032 -2.67235,-3.61781 -4.55031,-3.39097 -1.38321,0.16709 -1.05918,2.66879 -0.99181,4.06043 0.13356,2.75878 1.10159,5.41371 1.58207,8.13361 0.43011,2.43458 -0.54176,5.52378 1.14927,7.32725 1.15094,1.22747 3.30431,-0.76362 4.98687,-0.78317 1.50918,-0.0175 -2.97381,0.51804 -4.46072,0.77706 1.60089,-0.45952 3.41403,-0.45898 4.80269,-1.37856 0.43294,-0.28668 -0.45812,-0.96146 -0.48601,-1.47995 -0.0289,-0.53653 0.82828,-1.40115 0.32147,-1.57954 -1.21224,-0.42668 -2.55524,0.35518 -3.84029,0.34099 -0.23493,-0.003 -0.46713,-0.5918 -0.58725,-0.38986 -0.45617,0.76705 -0.47688,1.72002 -0.71533,2.58003 4.11719,4.45093 1.31247,2.87876 8.42902,3.02447 0.3465,0.007 -0.76467,0.27402 -1.03791,0.0609 -0.82682,-0.645 -1.35892,-1.59855 -1.99847,-2.42958 -0.89358,-1.16109 -1.1348,-3.59178 -2.59919,-3.54455 -1.91278,0.0617 -2.88787,2.51209 -4.33181,3.76813 0.39113,0.43021 0.59655,1.21788 1.17343,1.29063 0.37629,0.0474 -0.11068,-0.96306 0.23786,-1.11266 1.42031,-0.60969 3.30811,-0.006 4.54093,-0.93869 0.90419,-0.68379 -2.35156,0.5069 -3.40005,0.0759 -1.01018,-0.41527 -1.14848,-2.31298 -2.23769,-2.3935 -1.78612,-0.13204 -3.36166,1.23688 -5.04251,1.85531 1.60131,0.51398 3.06658,0.94456 4.61587,1.64348 0.83598,0.37713 1.82044,0.54227 2.49129,1.16761 0.35941,0.33502 -4.10223,-0.78919 -0.693,-1.30094 -0.14946,-0.54993 -0.90596,-1.3101 -0.44838,-1.64979 0.45921,-0.3409 1.12225,0.43726 1.46272,0.89679 0.65852,0.88881 0.45677,2.45931 1.42293,2.99798 5.15614,2.87476 6.84829,2.9084 6.6685,-1.24024 -0.0865,-1.99658 -0.47376,-3.96875 -0.71062,-5.95312 0,-0.47759 -6.7542,-0.47759 -6.7542,0 z" />
        </g>
      </g>
    </g>
    <path
       style="fill:#567aec;fill-opacity:1;stroke:none;stroke-width:0.285523"
       d="m 162.6162,-183.8344 h -25.64775 c -3.53104,0 -7.99477,-0.77286 -10.93916,1.56411 -4.03177,3.20006 -2.60514,10.05678 -2.60514,14.56072 v 39.32192 c -1.27955,0 -2.86957,-0.21695 -3.96866,0.56834 -1.13624,0.81193 -0.99589,2.44899 -0.90435,3.67504 0.26622,3.56529 2.66064,6.97695 5.73751,8.78947 6.09644,3.59101 16.46028,1.67755 23.34233,1.67755 h 43.51472 c 6.63471,0 14.54948,1.16155 21.0369,-0.18926 3.80712,-0.79267 7.14076,-3.36076 8.68192,-6.88305 1.85095,-4.23008 1.3798,-7.6375 -3.7829,-7.63809 v -26.30891 h 23.6305 c 2.05557,0 7.48452,0.0154 5.4673,-3.66203 -0.84898,-1.54772 -2.78666,-1.42946 -4.31458,-1.43002 -2.76649,-8.6e-4 -7.50067,0.90412 -10.04469,-0.17066 -1.13515,-0.47976 -1.30458,-2.19378 -1.60371,-3.22409 l -2.47228,-8.48675 h 25.07139 c 3.25093,0 7.63065,0.78529 10.37324,-1.28237 4.42924,-3.33924 2.88292,-10.56117 2.88292,-15.40823 v -38.75619 c 0,-4.30414 1.40599,-11.29162 -1.78239,-14.69902 -2.24866,-2.40287 -4.95089,-2.27446 -8.01564,-2.27446 H 243.5939 186.53487 172.12603 c -2.99559,0 -5.82034,0.003 -7.84158,2.57154 -3.15898,4.0131 -1.66825,11.59257 -1.66825,16.38219 v 41.30221 m 54.46542,7.07229 c -1.49937,-7.11247 -7.14303,-7.07229 -13.25613,-7.07229 h -36.02211 v -39.60486 -10.1841 c 0,-1.39292 -0.30951,-3.26302 0.57895,-4.46164 1.04663,-1.41183 3.6365,-0.91332 5.18461,-0.91332 h 14.98515 53.31275 13.25613 c 1.4749,0 3.95178,-0.467 5.09555,0.65574 0.91928,0.90247 0.668,2.42768 0.668,3.58765 v 8.76963 35.3615 9.61831 c 0,1.2665 0.27203,2.92453 -0.90717,3.78989 -2.2184,1.62803 -8.75743,0.45349 -11.48443,0.45349 h -31.4113 m -5.18718,48.37446 h -27.95318 c -2.91578,0 -7.91218,-1.01389 -8.93346,2.54603 l -8.89515,-0.0899 -3.78464,-2.42637 -33.71668,-0.0297 v -36.21014 -9.33544 c 0,-1.20115 -0.28523,-2.87304 0.50207,-3.89598 1.00873,-1.31035 3.22573,-0.91317 4.68511,-0.91317 h 13.25613 47.83736 11.81526 c 1.46799,0 3.39269,-0.314 4.46271,0.91317 0.96799,1.11033 0.72447,2.82637 0.72447,4.17888 v 9.05254 36.21013 m 13.8325,-31.40099 h -8.64532 v -11.88144 l 4.97739,0.2908 1.19566,3.1039 2.47227,8.48674 m 6.62806,7.50202 c -2.77368,0.59069 -4.9768,2.79949 -5.61108,5.511 -0.53604,2.29199 -0.15245,5.01143 -0.15245,7.35519 v 14.71039 14.71034 c 0,2.60036 -0.31296,5.33876 1.19105,7.63696 1.10977,1.69537 3.0933,2.920864 5.14885,3.086614 4.7382,0.38164 9.65392,0.0263 14.40885,0.0263 2.75496,0 5.95487,0.43566 8.6453,-0.19349 2.5665,-0.600014 4.64022,-2.932164 5.09238,-5.464344 1.22158,-6.8389 0.0947,-14.83285 0.0947,-21.78266 v -14.99326 c 0,-2.60005 0.36742,-5.3455 -1.14377,-7.63778 -1.07374,-1.62861 -2.93538,-2.81789 -4.90794,-3.05976 -4.38288,-0.53723 -9.12656,-0.0523 -13.54431,-0.0523 -2.93683,0 -6.34595,-0.46565 -9.22166,0.14697 m 1.1651,5.09063 c 1.60861,-0.50326 3.78723,-0.14542 5.46297,-0.14542 h 11.23888 c 1.5654,0 4.17945,-0.49222 5.26155,0.91316 1.05674,1.37287 0.50201,4.24537 0.50201,5.87623 v 15.55905 15.27614 c 0,1.66596 0.55704,4.44623 -1.44637,5.20437 -1.45933,0.55192 -3.63563,0.17064 -5.1817,0.17064 H 237.5421 c -1.66335,0 -4.37049,0.53465 -5.34366,-1.16242 -1.00226,-1.74768 -0.41988,-4.81143 -0.41988,-6.75856 v -15.55902 -14.42749 c 0,-1.70501 -0.37261,-4.28554 1.74146,-4.94665 m -73.20933,23.90038 c 1.2092,4.21453 10.33113,2.54604 13.83248,2.54604 1.39825,0 3.01953,0.19602 4.31026,-0.44498 1.17751,-0.58447 1.49277,-1.95621 2.90655,-2.08436 11.40289,-1.03396 23.39998,-0.0172 34.85704,-0.0172 -2.90222,6.51753 -12.25445,4.52625 -18.15514,4.52625 h -53.6009 c -4.77576,0 -10.61893,0.89902 -15.27339,-0.14968 -2.24795,-0.50666 -4.35718,-2.13951 -4.89901,-4.3766 z"
       id="path38" />
    <path
       style="fill:#567aec;fill-opacity:1;stroke:none;stroke-width:0.60907"
       d="m -188.99754,-181.41843 c -5.06194,0.27256 -6.78543,-2.51227 -11.47951,-4.01449 -7.23273,-2.3147 -16.7906,-0.15243 -22.38284,5.42681 -7.40235,7.38507 -5.74498,14.70255 -6.97277,24.44013 -0.38244,3.03333 -2.40881,5.3815 -2.96202,8.40203 -1.28105,6.99521 3.65613,11.71575 9.35857,12.2799 0.32998,4.25595 1.76377,8.33224 4.20652,11.631 2.06768,2.79273 6.33192,5.39672 4.2202,9.6294 -4.56483,9.14917 -19.1988,6.83862 -26.21774,11.7047 -7.45402,5.167884 -5.91194,25.405184 -6.29383,34.251234 -0.14296,3.31169 -1.35177,7.82747 0.24004,10.84898 2.70907,5.1427 14.67738,2.72355 19.25301,2.72355 h 49.93593 c 4.40985,0 14.21279,2.0501 17.61877,-1.57313 2.01063,-2.13863 1.40566,-5.34821 1.32817,-8.12153 -0.21585,-7.70661 -0.86957,-15.61941 -1.72766,-23.26719 h 24.68097 c 2.66096,0 7.38764,0.99984 9.33171,-1.57313 1.44527,-1.91307 0.99986,-5.15433 0.99986,-7.47523 v -18.743004 -34.25448 c 0,-5.00678 -0.90632,-11.28614 0.18201,-16.14826 1.0033,-4.48276 5.13136,-7.38262 6.18918,-12.28942 1.36607,-6.3323 -0.68934,-13.71277 -5.23178,-17.84436 -3.5822,-3.25802 -8.68082,-4.77976 -13.19284,-3.69784 -3.37442,0.80919 -6.57835,2.54092 -8.88572,5.49663 -1.43609,1.83922 -2.27698,4.96723 -4.39035,5.96091 -2.37857,1.11859 -5.99806,0.38999 -8.53504,0.38999 h -19.51518 c -4.67102,0 -9.4333,-0.82895 -9.7576,5.8168 m 53.95377,-15.14141 c 17.47241,-0.007 17.39032,29.98886 0,29.98764 -17.11253,-0.001 -17.12975,-29.98148 0,-29.98764 m 5.73746,7.24756 c -2.70459,0.39871 -3.88294,3.67339 -6.31145,4.55707 -2.74072,0.99745 -5.66972,-3.01425 -8.18145,0.38547 -3.00419,4.06647 4.52465,12.31527 8.18145,11.64911 3.30324,-0.60172 8.89663,-7.19441 9.98317,-10.63674 0.90688,-2.87445 -0.68245,-6.39568 -3.67172,-5.95491 m -12.0512,5.95491 c 1.66969,0.86872 3.80317,3.47064 5.73975,2.63612 1.74948,-0.75373 4.94883,-6.62767 7.08172,-5.10767 1.67199,1.19175 -1.24781,4.25784 -1.92682,5.05681 -3.55291,4.1797 -12.06786,6.76403 -10.89465,-2.58526 m -9.18361,-1.2926 c -0.48388,15.13601 9.88902,23.11357 22.38507,19.38933 v 52.99748 c 0,5.55051 1.83213,16.137094 -0.34612,21.122724 -1.3431,3.07256 -10.22768,1.49816 -12.85534,1.49816 h -32.71664 c -2.81075,0 -9.42354,1.37275 -11.7074,-0.66443 -2.66324,-2.37518 -0.92007,-15.066144 -0.92007,-18.724894 v -54.93644 c 0,-3.83966 -1.85222,-17.54527 0.92007,-20.01765 1.9498,-1.73865 7.04384,-0.66428 9.4115,-0.66428 h 25.82893 m -39.03039,6.4631 v 17.4504 l -10.33157,-4.57757 -8.60964,6.2093 -12.60486,1.49608 -6.33635,2.04268 c 0,-18.10253 8.68815,-30.02044 25.82892,-27.00695 5.14828,0.90516 6.44248,4.99274 12.0535,4.38606 m -31.56868,23.26719 c 4.85514,1.01496 9.86084,0.59318 14.3494,-1.93395 2.24401,-1.26341 4.91668,-4.9097 7.46168,-4.98047 2.02718,-0.0564 7.16771,2.92746 9.0011,4.1347 2.80273,1.8453 1.33047,11.8136 1.33047,15.05962 0,5.42119 1.66913,15.02545 -1.85302,19.26978 -9.51108,11.46101 -28.13298,4.25724 -30.11692,-10.86772 -0.874,-6.66334 -0.17269,-13.94991 -0.17269,-20.68196 m 53.95375,-3.23156 20.08918,-0.6463 v -1.29263 c -3.78078,-1.25843 -18.69326,-2.79592 -20.08918,1.93893 m -56.82363,5.17049 v 15.51146 c -7.55291,-2.6027 -8.73013,-13.72976 0,-15.51146 m 45.3441,3.87787 c 0.65205,2.21181 1.47512,2.44544 3.44386,1.93893 v -1.29263 l -3.44386,-0.6463 m 6.31375,0.6463 c 1.78965,2.79461 5.24154,1.93893 8.03567,1.93893 h 20.08915 c 2.69025,0 5.74609,0.73991 7.46171,-1.93893 l -22.38507,-0.6463 -13.20146,0.6463 m -39.55298,2.05262 c -2.22392,0.35857 -1.85734,4.43874 0.47122,4.10932 2.28202,-0.32291 1.77521,-4.47151 -0.47122,-4.10932 m 16.65414,-0.13264 c -2.4122,0.69899 -1.3365,4.76829 1.01157,4.05736 2.34608,-0.71031 1.30281,-4.72804 -1.01157,-4.05736 m 16.58509,5.18942 v 1.29263 h 3.44386 v -1.29263 h -3.44386 m 6.88772,-0.6463 v 2.58524 c 10.65185,0 24.81471,2.7478 35.01256,-0.64631 v -1.29263 c -10.19785,-3.3941 -24.36071,-0.6463 -35.01256,-0.6463 m -6.88772,7.75573 v 1.29261 h 3.44386 v -1.29261 h -3.44386 m 6.88772,-0.64633 v 2.58526 c 10.65185,0 24.81471,2.7481 35.01256,-0.64632 v -1.29261 c -10.19785,-3.39417 -24.36071,-0.64633 -35.01256,-0.64633 m -39.60436,0.64633 c -1.66229,10.13284 17.30728,9.84396 16.07135,0 -3.4539,1.80256 -6.07095,5.85945 -10.33157,4.04461 -2.11747,-0.90226 -3.68138,-2.97046 -5.73978,-4.04461 m 32.71664,9.04834 3.44386,-0.64631 v -1.29263 c -1.96874,-0.5067 -2.79181,-0.27273 -3.44386,1.93894 m 6.31375,-0.64631 22.38507,0.64631 13.20146,-0.64631 c -1.78966,-2.79465 -5.24156,-1.93893 -8.03568,-1.93893 h -18.94121 c -3.07136,0 -6.32752,-0.68573 -8.60964,1.93893 m -16.64532,4.52417 v 10.34099 c -5.34974,-2.15998 -4.18048,-7.58769 0,-10.34099 m 10.33157,3.23156 3.44386,-0.6463 v -1.29263 c -1.96874,-0.5067 -2.79181,-0.27273 -3.44386,1.93893 m 6.31375,-0.6463 22.38507,0.6463 13.20146,-0.6463 c -2.28215,-2.62468 -5.53831,-1.93893 -8.60965,-1.93893 h -18.94121 c -2.94566,0 -5.85399,-0.56941 -8.03567,1.93893 m -38.4564,1.93893 c 5.3207,2.57747 10.10347,1.92924 15.49736,0 0.58712,4.39104 2.48314,6.71129 5.73975,9.04834 -5.22001,12.499014 -22.05767,9.670754 -28.12482,0 3.99149,-2.14444 4.69959,-5.1524 6.88771,-9.04834 m 32.14265,3.87787 c 0.65148,2.19552 1.47914,2.31314 3.44386,1.93893 v -1.93893 h -3.44386 m 6.31375,0.6463 v 0.6463 c 2.86874,1.72373 5.99691,1.29263 9.18361,1.29263 7.3974,0 19.8395,2.65117 26.40292,-1.29263 -2.28215,-2.62466 -5.53831,-1.93893 -8.60965,-1.93893 -7.53288,0 -20.2958,-2.72225 -26.97688,1.29263 m -47.06604,6.4631 c 8.52365,13.511144 19.70448,8.305744 30.42072,3.23156 0,3.698844 -1.13819,10.376534 0.92009,13.476874 1.66167,2.50253 4.67159,2.03459 7.11559,2.03459 h 17.79325 l 1.47857,20.68196 -0.67671,8.56877 -11.13343,1.12589 -5.6e-4,-18.09672 -1.62379,-4.76265 -1.24552,5.40898 v 17.45039 h -40.17834 c -2.76277,0 -11.3405,1.58669 -13.18549,-1.03604 -1.11323,-1.58283 -0.58994,-4.83895 -0.58994,-6.71969 0,-5.30558 0.52256,-10.97178 -0.57397,-16.15779 h -1.14796 c -1.09652,5.18601 -0.57397,10.85221 -0.57397,16.15779 0,1.88074 0.5233,5.13686 -0.58993,6.71969 -1.67709,2.38424 -10.62066,1.71725 -11.83734,-1.05027 -1.1505,-2.61691 -0.0818,-7.40929 0.20999,-10.19361 0.8008,-7.64197 -1.43477,-24.78536 4.24415,-30.09868 4.43053,-4.145454 15.51693,-5.803884 21.17468,-6.741044 z"
       id="path150" />
    <text
       xml:space="preserve"
       style="font-style:normal;font-weight:normal;font-size:34.302px;line-height:1.25;font-family:sans-serif;fill:#000000;fill-opacity:1;stroke:none;stroke-width:0.857552"
       x="-340.77432"
       y="2.7084839"
       id="text190"
       transform="scale(0.88687266,1.1275576)"><tspan
         sodipodi:role="line"
         id="tspan188"
         x="-340.77432"
         y="2.7084839"
         style="stroke-width:0.857552">KYC</tspan></text>
    <g
       id="g86"
       transform="matrix(1.5877025,0,0,1.7045757,-339.64728,-26.541223)">
      <path
         style="fill:#567aec;fill-opacity:1;stroke:none;stroke-width:0.449012"
         d="m 244.64746,137.71954 c -1.1174,-11.85297 -1.30644,-23.17211 -1.30644,-35.18574 0,-8.410339 -0.48464,-15.982639 6.96761,-21.248037 4.36298,-3.082661 9.37926,-2.363434 14.37069,-2.363434 9.02306,0 17.99384,-0.462968 26.99948,-0.462968 -2.38989,-6.102447 -5.80663,-17.371152 -12.19332,-19.630503 -5.3729,-1.900727 -10.6012,2.00005 -15.24163,4.466805 -11.006,5.850455 -22.09142,11.514478 -33.09615,17.364249 -4.38806,2.332547 -10.91649,4.542376 -12.81896,9.836681 -1.89411,5.270968 1.06884,9.676437 2.98785,14.352067 2.77785,6.76816 6.18193,13.30299 9.28811,19.90771 1.6178,3.43988 2.98362,7.93809 5.78752,10.4909 2.39356,2.17922 5.24596,2.46995 8.25524,2.47227 M 255.9698,85.687916 c -3.7625,1.072589 -6.17652,4.555063 -6.77608,8.512429 -1.58351,10.452025 -0.19152,22.279975 -0.19152,32.870875 0,4.6612 -0.41874,9.35664 3.09401,12.86456 3.82626,3.82088 11.58457,2.87643 16.50239,2.87643 h 31.35424 c 5.1299,0 11.60237,0.76113 16.54806,-0.75833 3.40716,-1.04725 5.81447,-4.40007 6.39017,-8.0381 1.66569,-10.52146 0.14205,-22.65636 0.14205,-33.33385 0,-4.682296 0.52301,-9.361486 -3.08883,-12.810978 -4.16097,-3.973529 -11.31452,-2.467034 -16.50757,-2.467034 h -32.22518 c -4.72796,0 -10.6648,-1.020799 -15.24165,0.283998 m -0.87094,11.290246 c 0.067,-7.87672 9.96149,-5.555633 15.24163,-5.555633 h 34.40256 c 3.1485,0 10.0277,-1.313362 12.30568,1.587897 2.35548,3.000186 -1.01162,3.963034 -3.16069,3.967736 H 295.59816 279.0501 255.09895 m 62.70846,9.259408 v 20.83365 c 0,2.38847 0.68762,6.2751 -1.05994,8.13254 -2.35374,2.50282 -9.33486,1.12688 -12.4398,1.12688 h -34.83803 c -3.3327,0 -11.33779,1.56205 -13.61197,-1.54818 -1.43977,-1.96901 -0.75872,-5.82971 -0.75872,-8.17419 v -20.3707 h 62.70846 m -48.33777,23.61148 c 4.99795,4.35145 13.67088,0.6352 10.46404,-6.9427 -2.46349,-5.82186 -6.46551,-2.27736 -10.46404,-2.48476 -3.98852,-0.20648 -9.35489,-2.96024 -10.35822,3.87182 -0.94581,6.4399 6.18592,10.7122 10.35822,5.55564 z"
         id="path143" />
      <path
         style="fill:#567aec;fill-opacity:1;stroke:none;stroke-width:0.104931"
         d="m 331.18859,64.974666 -2.52778,5.49877 -1.17029,2.12211 -2.12277,0.40199 -5.71871,0.92611 4.08479,4.31276 1.51164,1.7251 -0.26098,2.37202 -0.9443,6.03786 5.106,-2.72878 2.14452,-1.06849 1.94028,0.96617 5.31023,2.8311 c -0.35813,-2.00704 -0.66459,-4.02574 -0.99567,-6.03786 -0.10385,-0.63139 -0.49548,-1.77233 -0.22548,-2.37202 0.24294,-0.53931 0.82697,-0.98546 1.22115,-1.40165 1.32306,-1.3969 3.59748,-2.94716 4.39115,-4.74403 l -5.61659,-0.83327 -2.30893,-0.45391 -1.13792,-2.16303 -2.4761,-5.39095 z"
         id="path182" />
      <path
         style="fill:#567aec;fill-opacity:1;stroke:none;stroke-width:0.0675464"
         d="m 325.74457,140.74335 -1.625,3.54444 -0.75233,1.36789 -1.36464,0.25912 -3.67631,0.59695 2.62594,2.77996 0.97176,1.11198 -0.16777,1.52897 -0.60705,3.89193 3.28243,-1.75893 1.37862,-0.68874 1.24732,0.62278 3.41372,1.82489 c -0.23022,-1.29371 -0.42723,-2.59494 -0.64007,-3.89193 -0.0668,-0.40698 -0.31852,-1.14242 -0.14495,-1.52897 0.15617,-0.34764 0.53162,-0.63522 0.78502,-0.90349 0.85054,-0.90043 2.31267,-1.8997 2.82288,-3.05794 l -3.61066,-0.53712 -1.48431,-0.29259 -0.73152,-1.39426 -1.59178,-3.47494 z"
         id="path184" />
      <path
         style="fill:#567aec;fill-opacity:1;stroke:none;stroke-width:0.0675464"
         d="m 242.58981,56.076683 -1.625,3.54444 -0.75233,1.36789 -1.36464,0.25912 -3.67631,0.59695 2.62594,2.77996 0.97176,1.11198 -0.16777,1.52897 -0.60705,3.89193 3.28243,-1.75893 1.37862,-0.68874 1.24732,0.62278 3.41372,1.82489 c -0.23022,-1.29371 -0.42723,-2.59494 -0.64007,-3.89193 -0.0668,-0.40698 -0.31852,-1.14242 -0.14495,-1.52897 0.15617,-0.34764 0.53162,-0.63522 0.78502,-0.90349 0.85054,-0.90043 2.31267,-1.8997 2.82288,-3.05794 l -3.61066,-0.53712 -1.48431,-0.29259 -0.73152,-1.39426 -1.59178,-3.47494 z"
         id="path186" />
    </g>
    <path
       sodipodi:type="star"
       style="fill:#ffffff;fill-opacity:1;stroke-width:1"
       id="path211"
       sodipodi:sides="5"
       sodipodi:cx="859.53882"
       sodipodi:cy="-25.390606"
       sodipodi:r1="44.662807"
       sodipodi:r2="36.132973"
       sodipodi:arg1="0.89138252"
       sodipodi:arg2="1.5197011"
       inkscape:flatsided="true"
       inkscape:rounded="0"
       inkscape:randomized="0"
       inkscape:transform-center-x="0.70489888"
       inkscape:transform-center-y="-3.588964"
       d="m 887.60212,9.3544312 -52.43576,2.6815538 -18.75385,-49.040723 40.84524,-32.990387 43.9976,28.651542 z"
       transform="matrix(1.1928877,0,0,1.6625135,-200.0555,46.372715)" />
    <g
       id="g283"
       transform="matrix(1.5177276,0,0,2.3586912,-714.97031,125.04853)">
      <rect
         style="fill:#567aec;fill-opacity:1;stroke-width:1"
         id="rect200"
         width="56.393867"
         height="93.544334"
         x="1064.2672"
         y="-25.657875"
         ry="8.9560003" />
      <rect
         style="fill:#ffffff;fill-opacity:1;stroke-width:0.837501"
         id="rect202"
         width="49.979397"
         height="74.033661"
         x="1067.4744"
         y="-14.432556"
         ry="7.0880346" />
      <rect
         style="fill:#567aec;fill-opacity:1;stroke-width:0.332753"
         id="rect204"
         width="47.509998"
         height="12.294398"
         x="1086.7179"
         y="22.98518"
         ry="1.1770743" />
      <text
         xml:space="preserve"
         style="font-style:normal;font-weight:normal;font-size:7.87189px;line-height:1.25;font-family:sans-serif;fill:#ffffff;fill-opacity:1;stroke:none;stroke-width:0.196798"
         x="1079.1289"
         y="32.311409"
         id="text208"
         transform="scale(1.0143724,0.98583123)"><tspan
           sodipodi:role="line"
           id="tspan206"
           x="1079.1289"
           y="32.311409"
           style="font-style:normal;font-variant:normal;font-weight:bold;font-stretch:normal;font-family:Verdana;-inkscape-font-specification:'Verdana Bold';fill:#ffffff;stroke-width:0.196798">Sign up</tspan></text>
      <path
         style="fill:#567aec;fill-opacity:1;stroke:none;stroke-width:0.0962067"
         d="m 1154.4437,48.198245 -9.0842,-9.13495 3.5722,-3.23439 c -1.1518,-0.21894 -2.4722,-0.0209 -3.6431,0.0229 -1.9349,0.0724 -3.8724,0.0849 -5.8072,0.16771 -0.7388,0.0317 -2.4448,-0.24332 -3.0394,0.22031 -0.5154,0.40185 -0.3576,2.25566 -0.4071,2.86739 -0.1604,1.98241 -0.3017,3.96628 -0.4658,5.94859 -0.081,0.97721 -0.2897,2.02535 -0.1403,2.9991 l 2.5006,-2.26406 c 0.2502,-0.2266 0.6136,-0.70219 0.9943,-0.69268 0.7024,0.0177 1.8423,1.63366 2.3108,2.10486 l 4.4066,4.43114 c 0.7648,0.76912 1.7422,1.53059 2.3013,2.45068 z"
         id="path273" />
    </g>
  </g>
</svg>
